<svg width="1473" height="600" viewBox="0 0 1473 600" fill="none" xmlns="http://www.w3.org/2000/svg">
<rect x="221.351" y="561" width="38.6575" height="5.39187" transform="rotate(90 221.351 561)" fill="#001049"/>
<rect x="226.743" y="561" width="37.7431" height="5.5225" fill="#001049"/>
<rect x="264.486" y="561" width="38.6575" height="5.39187" transform="rotate(90 264.486 561)" fill="#001049"/>
<rect x="232.135" y="561" width="27.6125" height="5.39187" transform="rotate(90 232.135 561)" fill="#001049"/>
<rect x="253.702" y="572.045" width="27.6125" height="5.39187" transform="rotate(90 253.702 572.045)" fill="#001049"/>
<rect x="253.702" y="599.658" width="32.3512" height="5.5225" transform="rotate(180 253.702 599.658)" fill="#001049"/>
<rect x="253.702" y="577.567" width="16.1756" height="5.5225" transform="rotate(180 253.702 577.567)" fill="#001049"/>
<rect x="237.526" y="588.613" width="16.5675" height="5.39187" transform="rotate(-90 237.526 588.613)" fill="#001049"/>
<rect x="226.743" y="583.09" width="16.1756" height="5.5225" fill="#001049"/>
<rect x="264.486" y="561" width="38.6575" height="5.39187" transform="rotate(90 264.486 561)" fill="#001049"/>
<rect x="269.877" y="561" width="37.7431" height="5.5225" fill="#001049"/>
<rect x="307.621" y="561" width="38.6575" height="5.39187" transform="rotate(90 307.621 561)" fill="#001049"/>
<rect x="275.27" y="561" width="27.6125" height="5.39187" transform="rotate(90 275.27 561)" fill="#001049"/>
<rect x="296.837" y="572.045" width="27.6125" height="5.39187" transform="rotate(90 296.837 572.045)" fill="#001049"/>
<rect x="296.837" y="599.658" width="32.3512" height="5.5225" transform="rotate(180 296.837 599.658)" fill="#001049"/>
<rect x="296.837" y="577.567" width="16.1756" height="5.5225" transform="rotate(180 296.837 577.567)" fill="#001049"/>
<rect x="280.661" y="588.613" width="16.5675" height="5.39187" transform="rotate(-90 280.661 588.613)" fill="#001049"/>
<rect x="269.877" y="583.09" width="16.1756" height="5.5225" fill="#001049"/>
<rect x="307.621" y="561" width="38.6575" height="5.39187" transform="rotate(90 307.621 561)" fill="#001049"/>
<rect x="313.012" y="561" width="37.7431" height="5.5225" fill="#001049"/>
<rect x="350.755" y="561" width="38.6575" height="5.39187" transform="rotate(90 350.755 561)" fill="#001049"/>
<rect x="318.404" y="561" width="27.6125" height="5.39187" transform="rotate(90 318.404 561)" fill="#001049"/>
<rect x="339.972" y="572.045" width="27.6125" height="5.39187" transform="rotate(90 339.972 572.045)" fill="#001049"/>
<rect x="339.972" y="599.658" width="32.3512" height="5.5225" transform="rotate(180 339.972 599.658)" fill="#001049"/>
<rect x="339.972" y="577.567" width="16.1756" height="5.5225" transform="rotate(180 339.972 577.567)" fill="#001049"/>
<rect x="323.796" y="588.613" width="16.5675" height="5.39187" transform="rotate(-90 323.796 588.613)" fill="#001049"/>
<rect x="313.012" y="583.09" width="16.1756" height="5.5225" fill="#001049"/>
<rect x="350.756" y="561" width="38.6575" height="5.39187" transform="rotate(90 350.756 561)" fill="#001049"/>
<rect x="356.148" y="561" width="37.7431" height="5.5225" fill="#001049"/>
<rect x="393.891" y="561" width="38.6575" height="5.39187" transform="rotate(90 393.891 561)" fill="#001049"/>
<rect x="361.54" y="561" width="27.6125" height="5.39187" transform="rotate(90 361.54 561)" fill="#001049"/>
<rect x="383.107" y="572.045" width="27.6125" height="5.39187" transform="rotate(90 383.107 572.045)" fill="#001049"/>
<rect x="383.107" y="599.658" width="32.3512" height="5.5225" transform="rotate(180 383.107 599.658)" fill="#001049"/>
<rect x="383.107" y="577.567" width="16.1756" height="5.5225" transform="rotate(180 383.107 577.567)" fill="#001049"/>
<rect x="366.932" y="588.613" width="16.5675" height="5.39187" transform="rotate(-90 366.932 588.613)" fill="#001049"/>
<rect x="356.148" y="583.09" width="16.1756" height="5.5225" fill="#001049"/>
<rect x="393.891" y="561" width="38.6575" height="5.39187" transform="rotate(90 393.891 561)" fill="#001049"/>
<rect x="399.282" y="561" width="37.7431" height="5.5225" fill="#001049"/>
<rect x="437.026" y="561" width="38.6575" height="5.39187" transform="rotate(90 437.026 561)" fill="#001049"/>
<rect x="404.675" y="561" width="27.6125" height="5.39187" transform="rotate(90 404.675 561)" fill="#001049"/>
<rect x="426.242" y="572.045" width="27.6125" height="5.39187" transform="rotate(90 426.242 572.045)" fill="#001049"/>
<rect x="426.242" y="599.658" width="32.3512" height="5.5225" transform="rotate(180 426.242 599.658)" fill="#001049"/>
<rect x="426.242" y="577.567" width="16.1756" height="5.5225" transform="rotate(180 426.242 577.567)" fill="#001049"/>
<rect x="410.066" y="588.613" width="16.5675" height="5.39187" transform="rotate(-90 410.066 588.613)" fill="#001049"/>
<rect x="399.282" y="583.09" width="16.1756" height="5.5225" fill="#001049"/>
<rect x="5.39209" y="562" width="36.6575" height="5.39187" transform="rotate(90 5.39209 562)" fill="#001049"/>
<rect x="10.7837" y="562" width="37.7431" height="5.23679" fill="#001049"/>
<rect x="48.5264" y="562" width="36.6575" height="5.39187" transform="rotate(90 48.5264 562)" fill="#001049"/>
<rect x="16.1758" y="562" width="26.1839" height="5.39187" transform="rotate(90 16.1758 562)" fill="#001049"/>
<rect x="37.7427" y="572.473" width="26.1839" height="5.39187" transform="rotate(90 37.7427 572.473)" fill="#001049"/>
<rect x="37.7427" y="598.657" width="32.3512" height="5.23679" transform="rotate(180 37.7427 598.657)" fill="#001049"/>
<rect x="37.7427" y="577.71" width="16.1756" height="5.23679" transform="rotate(180 37.7427 577.71)" fill="#001049"/>
<rect x="21.5674" y="588.184" width="15.7104" height="5.39187" transform="rotate(-90 21.5674 588.184)" fill="#001049"/>
<rect x="10.7837" y="582.947" width="16.1756" height="5.23679" fill="#001049"/>
<rect x="48.3921" y="562" width="36.6575" height="5.39187" transform="rotate(90 48.3921 562)" fill="#001049"/>
<rect x="53.7837" y="562" width="37.7431" height="5.23679" fill="#001049"/>
<rect x="91.5269" y="562" width="36.6575" height="5.39187" transform="rotate(90 91.5269 562)" fill="#001049"/>
<rect x="59.1758" y="562" width="26.1839" height="5.39187" transform="rotate(90 59.1758 562)" fill="#001049"/>
<rect x="80.7432" y="572.473" width="26.1839" height="5.39187" transform="rotate(90 80.7432 572.473)" fill="#001049"/>
<rect x="80.7432" y="598.657" width="32.3512" height="5.23679" transform="rotate(180 80.7432 598.657)" fill="#001049"/>
<rect x="80.7432" y="577.71" width="16.1756" height="5.23679" transform="rotate(180 80.7432 577.71)" fill="#001049"/>
<rect x="64.5674" y="588.184" width="15.7104" height="5.39187" transform="rotate(-90 64.5674 588.184)" fill="#001049"/>
<rect x="53.7837" y="582.947" width="16.1756" height="5.23679" fill="#001049"/>
<rect x="91.3921" y="562" width="36.6575" height="5.39187" transform="rotate(90 91.3921 562)" fill="#001049"/>
<rect x="96.7837" y="562" width="37.7431" height="5.23679" fill="#001049"/>
<rect x="134.527" y="562" width="36.6575" height="5.39187" transform="rotate(90 134.527 562)" fill="#001049"/>
<rect x="102.176" y="562" width="26.1839" height="5.39187" transform="rotate(90 102.176 562)" fill="#001049"/>
<rect x="123.743" y="572.473" width="26.1839" height="5.39187" transform="rotate(90 123.743 572.473)" fill="#001049"/>
<rect x="123.743" y="598.657" width="32.3512" height="5.23679" transform="rotate(180 123.743 598.657)" fill="#001049"/>
<rect x="123.743" y="577.71" width="16.1756" height="5.23679" transform="rotate(180 123.743 577.71)" fill="#001049"/>
<rect x="107.568" y="588.184" width="15.7104" height="5.39187" transform="rotate(-90 107.568 588.184)" fill="#001049"/>
<rect x="96.7837" y="582.947" width="16.1756" height="5.23679" fill="#001049"/>
<rect x="134.392" y="562" width="36.6575" height="5.39187" transform="rotate(90 134.392 562)" fill="#001049"/>
<rect x="139.784" y="562" width="37.7431" height="5.23679" fill="#001049"/>
<rect x="177.527" y="562" width="36.6575" height="5.39187" transform="rotate(90 177.527 562)" fill="#001049"/>
<rect x="145.176" y="562" width="26.1839" height="5.39187" transform="rotate(90 145.176 562)" fill="#001049"/>
<rect x="166.744" y="572.473" width="26.1839" height="5.39187" transform="rotate(90 166.744 572.473)" fill="#001049"/>
<rect x="166.744" y="598.657" width="32.3512" height="5.23679" transform="rotate(180 166.744 598.657)" fill="#001049"/>
<rect x="166.744" y="577.71" width="16.1756" height="5.23679" transform="rotate(180 166.744 577.71)" fill="#001049"/>
<rect x="150.567" y="588.184" width="15.7104" height="5.39187" transform="rotate(-90 150.567 588.184)" fill="#001049"/>
<rect x="139.784" y="582.947" width="16.1756" height="5.23679" fill="#001049"/>
<rect x="177.392" y="561" width="38.6575" height="5.39187" transform="rotate(90 177.392 561)" fill="#001049"/>
<rect x="182.784" y="561" width="37.7431" height="5.5225" fill="#001049"/>
<rect x="220.527" y="561" width="38.6575" height="5.39187" transform="rotate(90 220.527 561)" fill="#001049"/>
<rect x="188.176" y="561" width="27.6125" height="5.39187" transform="rotate(90 188.176 561)" fill="#001049"/>
<rect x="209.743" y="572.045" width="27.6125" height="5.39187" transform="rotate(90 209.743 572.045)" fill="#001049"/>
<rect x="209.743" y="599.657" width="32.3512" height="5.5225" transform="rotate(180 209.743 599.657)" fill="#001049"/>
<rect x="209.743" y="577.567" width="16.1756" height="5.5225" transform="rotate(180 209.743 577.567)" fill="#001049"/>
<rect x="193.567" y="588.612" width="16.5675" height="5.39187" transform="rotate(-90 193.567 588.612)" fill="#001049"/>
<rect x="182.784" y="583.09" width="16.1756" height="5.5225" fill="#001049"/>
<rect x="437.026" y="561" width="38.6575" height="5.39187" transform="rotate(90 437.026 561)" fill="#001049"/>
<rect x="442.417" y="561" width="37.7431" height="5.5225" fill="#001049"/>
<rect x="480.161" y="561" width="38.6575" height="5.39187" transform="rotate(90 480.161 561)" fill="#001049"/>
<rect x="447.809" y="561" width="27.6125" height="5.39187" transform="rotate(90 447.809 561)" fill="#001049"/>
<rect x="469.377" y="572.045" width="27.6125" height="5.39187" transform="rotate(90 469.377 572.045)" fill="#001049"/>
<rect x="469.377" y="599.658" width="32.3512" height="5.5225" transform="rotate(180 469.377 599.658)" fill="#001049"/>
<rect x="469.377" y="577.567" width="16.1756" height="5.5225" transform="rotate(180 469.377 577.567)" fill="#001049"/>
<rect x="453.201" y="588.613" width="16.5675" height="5.39187" transform="rotate(-90 453.201 588.613)" fill="#001049"/>
<rect x="442.417" y="583.09" width="16.1756" height="5.5225" fill="#001049"/>
<rect x="480.162" y="561" width="38.6575" height="5.39187" transform="rotate(90 480.162 561)" fill="#001049"/>
<rect x="485.554" y="561" width="37.7431" height="5.5225" fill="#001049"/>
<rect x="523.297" y="561" width="38.6575" height="5.39187" transform="rotate(90 523.297 561)" fill="#001049"/>
<rect x="490.946" y="561" width="27.6125" height="5.39187" transform="rotate(90 490.946 561)" fill="#001049"/>
<rect x="512.513" y="572.045" width="27.6125" height="5.39187" transform="rotate(90 512.513 572.045)" fill="#001049"/>
<rect x="512.513" y="599.658" width="32.3512" height="5.5225" transform="rotate(180 512.513 599.658)" fill="#001049"/>
<rect x="512.513" y="577.567" width="16.1756" height="5.5225" transform="rotate(180 512.513 577.567)" fill="#001049"/>
<rect x="496.338" y="588.613" width="16.5675" height="5.39187" transform="rotate(-90 496.338 588.613)" fill="#001049"/>
<rect x="485.554" y="583.09" width="16.1756" height="5.5225" fill="#001049"/>
<rect x="523.295" y="561" width="38.6575" height="5.39187" transform="rotate(90 523.295 561)" fill="#001049"/>
<rect x="528.687" y="561" width="37.7431" height="5.5225" fill="#001049"/>
<rect x="566.43" y="561" width="38.6575" height="5.39187" transform="rotate(90 566.43 561)" fill="#001049"/>
<rect x="534.079" y="561" width="27.6125" height="5.39187" transform="rotate(90 534.079 561)" fill="#001049"/>
<rect x="555.647" y="572.045" width="27.6125" height="5.39187" transform="rotate(90 555.647 572.045)" fill="#001049"/>
<rect x="555.647" y="599.658" width="32.3512" height="5.5225" transform="rotate(180 555.647 599.658)" fill="#001049"/>
<rect x="555.647" y="577.567" width="16.1756" height="5.5225" transform="rotate(180 555.647 577.567)" fill="#001049"/>
<rect x="539.471" y="588.613" width="16.5675" height="5.39187" transform="rotate(-90 539.471 588.613)" fill="#001049"/>
<rect x="528.687" y="583.09" width="16.1756" height="5.5225" fill="#001049"/>
<rect x="566.43" y="561" width="38.6575" height="5.39187" transform="rotate(90 566.43 561)" fill="#001049"/>
<rect x="571.822" y="561" width="37.7431" height="5.5225" fill="#001049"/>
<rect x="609.565" y="561" width="38.6575" height="5.39187" transform="rotate(90 609.565 561)" fill="#001049"/>
<rect x="577.214" y="561" width="27.6125" height="5.39187" transform="rotate(90 577.214 561)" fill="#001049"/>
<rect x="598.781" y="572.045" width="27.6125" height="5.39187" transform="rotate(90 598.781 572.045)" fill="#001049"/>
<rect x="598.781" y="599.658" width="32.3512" height="5.5225" transform="rotate(180 598.781 599.658)" fill="#001049"/>
<rect x="598.781" y="577.567" width="16.1756" height="5.5225" transform="rotate(180 598.781 577.567)" fill="#001049"/>
<rect x="582.606" y="588.613" width="16.5675" height="5.39187" transform="rotate(-90 582.606 588.613)" fill="#001049"/>
<rect x="571.822" y="583.09" width="16.1756" height="5.5225" fill="#001049"/>
<rect x="609.565" y="561" width="38.6575" height="5.39187" transform="rotate(90 609.565 561)" fill="#001049"/>
<rect x="614.958" y="561" width="37.7431" height="5.5225" fill="#001049"/>
<rect x="652.7" y="561" width="38.6575" height="5.39187" transform="rotate(90 652.7 561)" fill="#001049"/>
<rect x="620.349" y="561" width="27.6125" height="5.39187" transform="rotate(90 620.349 561)" fill="#001049"/>
<rect x="641.917" y="572.045" width="27.6125" height="5.39187" transform="rotate(90 641.917 572.045)" fill="#001049"/>
<rect x="641.917" y="599.658" width="32.3512" height="5.5225" transform="rotate(180 641.917 599.658)" fill="#001049"/>
<rect x="641.917" y="577.567" width="16.1756" height="5.5225" transform="rotate(180 641.917 577.567)" fill="#001049"/>
<rect x="625.741" y="588.613" width="16.5675" height="5.39187" transform="rotate(-90 625.741 588.613)" fill="#001049"/>
<rect x="614.958" y="583.09" width="16.1756" height="5.5225" fill="#001049"/>
<rect x="652.7" y="561" width="38.6575" height="5.39187" transform="rotate(90 652.7 561)" fill="#001049"/>
<rect x="658.092" y="561" width="37.7431" height="5.5225" fill="#001049"/>
<rect x="695.835" y="561" width="38.6575" height="5.39187" transform="rotate(90 695.835 561)" fill="#001049"/>
<rect x="663.484" y="561" width="27.6125" height="5.39187" transform="rotate(90 663.484 561)" fill="#001049"/>
<rect x="685.052" y="572.045" width="27.6125" height="5.39187" transform="rotate(90 685.052 572.045)" fill="#001049"/>
<rect x="685.052" y="599.658" width="32.3512" height="5.5225" transform="rotate(180 685.052 599.658)" fill="#001049"/>
<rect x="685.052" y="577.567" width="16.1756" height="5.5225" transform="rotate(180 685.052 577.567)" fill="#001049"/>
<rect x="668.876" y="588.613" width="16.5675" height="5.39187" transform="rotate(-90 668.876 588.613)" fill="#001049"/>
<rect x="658.092" y="583.09" width="16.1756" height="5.5225" fill="#001049"/>
<rect x="695.838" y="561" width="38.6575" height="5.39187" transform="rotate(90 695.838 561)" fill="#001049"/>
<rect x="701.23" y="561" width="37.7431" height="5.5225" fill="#001049"/>
<rect x="738.973" y="561" width="38.6575" height="5.39187" transform="rotate(90 738.973 561)" fill="#001049"/>
<rect x="706.622" y="561" width="27.6125" height="5.39187" transform="rotate(90 706.622 561)" fill="#001049"/>
<rect x="728.189" y="572.045" width="27.6125" height="5.39187" transform="rotate(90 728.189 572.045)" fill="#001049"/>
<rect x="728.189" y="599.658" width="32.3512" height="5.5225" transform="rotate(180 728.189 599.658)" fill="#001049"/>
<rect x="728.189" y="577.567" width="16.1756" height="5.5225" transform="rotate(180 728.189 577.567)" fill="#001049"/>
<rect x="712.014" y="588.613" width="16.5675" height="5.39187" transform="rotate(-90 712.014 588.613)" fill="#001049"/>
<rect x="701.23" y="583.09" width="16.1756" height="5.5225" fill="#001049"/>
<rect x="738.97" y="561" width="38.6575" height="5.39187" transform="rotate(90 738.97 561)" fill="#001049"/>
<rect x="744.362" y="561" width="37.7431" height="5.5225" fill="#001049"/>
<rect x="782.105" y="561" width="38.6575" height="5.39187" transform="rotate(90 782.105 561)" fill="#001049"/>
<rect x="749.754" y="561" width="27.6125" height="5.39187" transform="rotate(90 749.754 561)" fill="#001049"/>
<rect x="771.321" y="572.045" width="27.6125" height="5.39187" transform="rotate(90 771.321 572.045)" fill="#001049"/>
<rect x="771.321" y="599.658" width="32.3512" height="5.5225" transform="rotate(180 771.321 599.658)" fill="#001049"/>
<rect x="771.321" y="577.567" width="16.1756" height="5.5225" transform="rotate(180 771.321 577.567)" fill="#001049"/>
<rect x="755.146" y="588.613" width="16.5675" height="5.39187" transform="rotate(-90 755.146 588.613)" fill="#001049"/>
<rect x="744.362" y="583.09" width="16.1756" height="5.5225" fill="#001049"/>
<rect x="782.105" y="561" width="38.6575" height="5.39187" transform="rotate(90 782.105 561)" fill="#001049"/>
<rect x="787.497" y="561" width="37.7431" height="5.5225" fill="#001049"/>
<rect x="825.24" y="561" width="38.6575" height="5.39187" transform="rotate(90 825.24 561)" fill="#001049"/>
<rect x="792.889" y="561" width="27.6125" height="5.39187" transform="rotate(90 792.889 561)" fill="#001049"/>
<rect x="814.456" y="572.045" width="27.6125" height="5.39187" transform="rotate(90 814.456 572.045)" fill="#001049"/>
<rect x="814.456" y="599.658" width="32.3512" height="5.5225" transform="rotate(180 814.456 599.658)" fill="#001049"/>
<rect x="814.456" y="577.567" width="16.1756" height="5.5225" transform="rotate(180 814.456 577.567)" fill="#001049"/>
<rect x="798.281" y="588.613" width="16.5675" height="5.39187" transform="rotate(-90 798.281 588.613)" fill="#001049"/>
<rect x="787.497" y="583.09" width="16.1756" height="5.5225" fill="#001049"/>
<rect x="825.242" y="561" width="38.6575" height="5.39187" transform="rotate(90 825.242 561)" fill="#001049"/>
<rect x="830.634" y="561" width="37.7431" height="5.5225" fill="#001049"/>
<rect x="868.376" y="561" width="38.6575" height="5.39187" transform="rotate(90 868.376 561)" fill="#001049"/>
<rect x="836.026" y="561" width="27.6125" height="5.39187" transform="rotate(90 836.026 561)" fill="#001049"/>
<rect x="857.593" y="572.045" width="27.6125" height="5.39187" transform="rotate(90 857.593 572.045)" fill="#001049"/>
<rect x="857.593" y="599.658" width="32.3512" height="5.5225" transform="rotate(180 857.593 599.658)" fill="#001049"/>
<rect x="857.593" y="577.567" width="16.1756" height="5.5225" transform="rotate(180 857.593 577.567)" fill="#001049"/>
<rect x="841.418" y="588.613" width="16.5675" height="5.39187" transform="rotate(-90 841.418 588.613)" fill="#001049"/>
<rect x="830.634" y="583.09" width="16.1756" height="5.5225" fill="#001049"/>
<rect x="868.376" y="561" width="38.6575" height="5.39187" transform="rotate(90 868.376 561)" fill="#001049"/>
<rect x="873.769" y="561" width="37.7431" height="5.5225" fill="#001049"/>
<rect x="911.511" y="561" width="38.6575" height="5.39187" transform="rotate(90 911.511 561)" fill="#001049"/>
<rect x="879.16" y="561" width="27.6125" height="5.39187" transform="rotate(90 879.16 561)" fill="#001049"/>
<rect x="900.728" y="572.045" width="27.6125" height="5.39187" transform="rotate(90 900.728 572.045)" fill="#001049"/>
<rect x="900.728" y="599.658" width="32.3512" height="5.5225" transform="rotate(180 900.728 599.658)" fill="#001049"/>
<rect x="900.728" y="577.567" width="16.1756" height="5.5225" transform="rotate(180 900.728 577.567)" fill="#001049"/>
<rect x="884.552" y="588.613" width="16.5675" height="5.39187" transform="rotate(-90 884.552 588.613)" fill="#001049"/>
<rect x="873.769" y="583.09" width="16.1756" height="5.5225" fill="#001049"/>
<rect x="911.513" y="561" width="38.6575" height="5.39187" transform="rotate(90 911.513 561)" fill="#001049"/>
<rect x="916.905" y="561" width="37.7431" height="5.5225" fill="#001049"/>
<rect x="954.647" y="561" width="38.6575" height="5.39187" transform="rotate(90 954.647 561)" fill="#001049"/>
<rect x="922.296" y="561" width="27.6125" height="5.39187" transform="rotate(90 922.296 561)" fill="#001049"/>
<rect x="943.864" y="572.045" width="27.6125" height="5.39187" transform="rotate(90 943.864 572.045)" fill="#001049"/>
<rect x="943.864" y="599.658" width="32.3512" height="5.5225" transform="rotate(180 943.864 599.658)" fill="#001049"/>
<rect x="943.864" y="577.567" width="16.1756" height="5.5225" transform="rotate(180 943.864 577.567)" fill="#001049"/>
<rect x="927.688" y="588.613" width="16.5675" height="5.39187" transform="rotate(-90 927.688 588.613)" fill="#001049"/>
<rect x="916.905" y="583.09" width="16.1756" height="5.5225" fill="#001049"/>
<rect x="954.645" y="561" width="38.6575" height="5.39187" transform="rotate(90 954.645 561)" fill="#001049"/>
<rect x="960.036" y="561" width="37.7431" height="5.5225" fill="#001049"/>
<rect x="997.779" y="561" width="38.6575" height="5.39187" transform="rotate(90 997.779 561)" fill="#001049"/>
<rect x="965.428" y="561" width="27.6125" height="5.39187" transform="rotate(90 965.428 561)" fill="#001049"/>
<rect x="986.996" y="572.045" width="27.6125" height="5.39187" transform="rotate(90 986.996 572.045)" fill="#001049"/>
<rect x="986.996" y="599.658" width="32.3512" height="5.5225" transform="rotate(180 986.996 599.658)" fill="#001049"/>
<rect x="986.996" y="577.567" width="16.1756" height="5.5225" transform="rotate(180 986.996 577.567)" fill="#001049"/>
<rect x="970.82" y="588.613" width="16.5675" height="5.39187" transform="rotate(-90 970.82 588.613)" fill="#001049"/>
<rect x="960.036" y="583.09" width="16.1756" height="5.5225" fill="#001049"/>
<rect x="997.781" y="561" width="38.6575" height="5.39187" transform="rotate(90 997.781 561)" fill="#001049"/>
<rect x="1003.17" y="561" width="37.7431" height="5.5225" fill="#001049"/>
<rect x="1040.92" y="561" width="38.6575" height="5.39187" transform="rotate(90 1040.92 561)" fill="#001049"/>
<rect x="1008.56" y="561" width="27.6125" height="5.39187" transform="rotate(90 1008.56 561)" fill="#001049"/>
<rect x="1030.13" y="572.045" width="27.6125" height="5.39187" transform="rotate(90 1030.13 572.045)" fill="#001049"/>
<rect x="1030.13" y="599.658" width="32.3512" height="5.5225" transform="rotate(180 1030.13 599.658)" fill="#001049"/>
<rect x="1030.13" y="577.567" width="16.1756" height="5.5225" transform="rotate(180 1030.13 577.567)" fill="#001049"/>
<rect x="1013.96" y="588.613" width="16.5675" height="5.39187" transform="rotate(-90 1013.96 588.613)" fill="#001049"/>
<rect x="1003.17" y="583.09" width="16.1756" height="5.5225" fill="#001049"/>
<rect x="1040.91" y="561" width="38.6575" height="5.39187" transform="rotate(90 1040.91 561)" fill="#001049"/>
<rect x="1046.31" y="561" width="37.7431" height="5.5225" fill="#001049"/>
<rect x="1084.05" y="561" width="38.6575" height="5.39187" transform="rotate(90 1084.05 561)" fill="#001049"/>
<rect x="1051.7" y="561" width="27.6125" height="5.39187" transform="rotate(90 1051.7 561)" fill="#001049"/>
<rect x="1073.27" y="572.045" width="27.6125" height="5.39187" transform="rotate(90 1073.27 572.045)" fill="#001049"/>
<rect x="1073.27" y="599.658" width="32.3512" height="5.5225" transform="rotate(180 1073.27 599.658)" fill="#001049"/>
<rect x="1073.27" y="577.567" width="16.1756" height="5.5225" transform="rotate(180 1073.27 577.567)" fill="#001049"/>
<rect x="1057.09" y="588.613" width="16.5675" height="5.39187" transform="rotate(-90 1057.09 588.613)" fill="#001049"/>
<rect x="1046.31" y="583.09" width="16.1756" height="5.5225" fill="#001049"/>
<rect x="1084.05" y="561" width="38.6575" height="5.39187" transform="rotate(90 1084.05 561)" fill="#001049"/>
<rect x="1089.44" y="561" width="37.7431" height="5.5225" fill="#001049"/>
<rect x="1127.18" y="561" width="38.6575" height="5.39187" transform="rotate(90 1127.18 561)" fill="#001049"/>
<rect x="1094.83" y="561" width="27.6125" height="5.39187" transform="rotate(90 1094.83 561)" fill="#001049"/>
<rect x="1116.4" y="572.045" width="27.6125" height="5.39187" transform="rotate(90 1116.4 572.045)" fill="#001049"/>
<rect x="1116.4" y="599.658" width="32.3512" height="5.5225" transform="rotate(180 1116.4 599.658)" fill="#001049"/>
<rect x="1116.4" y="577.567" width="16.1756" height="5.5225" transform="rotate(180 1116.4 577.567)" fill="#001049"/>
<rect x="1100.23" y="588.613" width="16.5675" height="5.39187" transform="rotate(-90 1100.23 588.613)" fill="#001049"/>
<rect x="1089.44" y="583.09" width="16.1756" height="5.5225" fill="#001049"/>
<rect x="1127.18" y="561" width="38.6575" height="5.39187" transform="rotate(90 1127.18 561)" fill="#001049"/>
<rect x="1132.58" y="561" width="37.7431" height="5.5225" fill="#001049"/>
<rect x="1170.32" y="561" width="38.6575" height="5.39187" transform="rotate(90 1170.32 561)" fill="#001049"/>
<rect x="1137.97" y="561" width="27.6125" height="5.39187" transform="rotate(90 1137.97 561)" fill="#001049"/>
<rect x="1159.54" y="572.045" width="27.6125" height="5.39187" transform="rotate(90 1159.54 572.045)" fill="#001049"/>
<rect x="1159.54" y="599.658" width="32.3512" height="5.5225" transform="rotate(180 1159.54 599.658)" fill="#001049"/>
<rect x="1159.54" y="577.567" width="16.1756" height="5.5225" transform="rotate(180 1159.54 577.567)" fill="#001049"/>
<rect x="1143.36" y="588.613" width="16.5675" height="5.39187" transform="rotate(-90 1143.36 588.613)" fill="#001049"/>
<rect x="1132.58" y="583.09" width="16.1756" height="5.5225" fill="#001049"/>
<rect x="1170.32" y="561" width="38.6575" height="5.39187" transform="rotate(90 1170.32 561)" fill="#001049"/>
<rect x="1175.71" y="561" width="37.7431" height="5.5225" fill="#001049"/>
<rect x="1213.45" y="561" width="38.6575" height="5.39187" transform="rotate(90 1213.45 561)" fill="#001049"/>
<rect x="1181.1" y="561" width="27.6125" height="5.39187" transform="rotate(90 1181.1 561)" fill="#001049"/>
<rect x="1202.67" y="572.045" width="27.6125" height="5.39187" transform="rotate(90 1202.67 572.045)" fill="#001049"/>
<rect x="1202.67" y="599.658" width="32.3512" height="5.5225" transform="rotate(180 1202.67 599.658)" fill="#001049"/>
<rect x="1202.67" y="577.567" width="16.1756" height="5.5225" transform="rotate(180 1202.67 577.567)" fill="#001049"/>
<rect x="1186.5" y="588.613" width="16.5675" height="5.39187" transform="rotate(-90 1186.5 588.613)" fill="#001049"/>
<rect x="1175.71" y="583.09" width="16.1756" height="5.5225" fill="#001049"/>
<rect x="1213.45" y="561" width="38.6575" height="5.39187" transform="rotate(90 1213.45 561)" fill="#001049"/>
<rect x="1218.85" y="561" width="37.7431" height="5.5225" fill="#001049"/>
<rect x="1256.59" y="561" width="38.6575" height="5.39187" transform="rotate(90 1256.59 561)" fill="#001049"/>
<rect x="1224.24" y="561" width="27.6125" height="5.39187" transform="rotate(90 1224.24 561)" fill="#001049"/>
<rect x="1245.81" y="572.045" width="27.6125" height="5.39187" transform="rotate(90 1245.81 572.045)" fill="#001049"/>
<rect x="1245.81" y="599.658" width="32.3512" height="5.5225" transform="rotate(180 1245.81 599.658)" fill="#001049"/>
<rect x="1245.81" y="577.567" width="16.1756" height="5.5225" transform="rotate(180 1245.81 577.567)" fill="#001049"/>
<rect x="1229.63" y="588.613" width="16.5675" height="5.39187" transform="rotate(-90 1229.63 588.613)" fill="#001049"/>
<rect x="1218.85" y="583.09" width="16.1756" height="5.5225" fill="#001049"/>
<rect x="1256.59" y="561" width="38.6575" height="5.39187" transform="rotate(90 1256.59 561)" fill="#001049"/>
<rect x="1261.98" y="561" width="37.7431" height="5.5225" fill="#001049"/>
<rect x="1299.72" y="561" width="38.6575" height="5.39187" transform="rotate(90 1299.72 561)" fill="#001049"/>
<rect x="1267.37" y="561" width="27.6125" height="5.39187" transform="rotate(90 1267.37 561)" fill="#001049"/>
<rect x="1288.94" y="572.045" width="27.6125" height="5.39187" transform="rotate(90 1288.94 572.045)" fill="#001049"/>
<rect x="1288.94" y="599.658" width="32.3512" height="5.5225" transform="rotate(180 1288.94 599.658)" fill="#001049"/>
<rect x="1288.94" y="577.567" width="16.1756" height="5.5225" transform="rotate(180 1288.94 577.567)" fill="#001049"/>
<rect x="1272.77" y="588.613" width="16.5675" height="5.39187" transform="rotate(-90 1272.77 588.613)" fill="#001049"/>
<rect x="1261.98" y="583.09" width="16.1756" height="5.5225" fill="#001049"/>
<rect x="1299.72" y="561" width="38.6575" height="5.39187" transform="rotate(90 1299.72 561)" fill="#001049"/>
<rect x="1305.12" y="561" width="37.7431" height="5.5225" fill="#001049"/>
<rect x="1342.86" y="561" width="38.6575" height="5.39187" transform="rotate(90 1342.86 561)" fill="#001049"/>
<rect x="1310.51" y="561" width="27.6125" height="5.39187" transform="rotate(90 1310.51 561)" fill="#001049"/>
<rect x="1332.08" y="572.045" width="27.6125" height="5.39187" transform="rotate(90 1332.08 572.045)" fill="#001049"/>
<rect x="1332.08" y="599.658" width="32.3512" height="5.5225" transform="rotate(180 1332.08 599.658)" fill="#001049"/>
<rect x="1332.08" y="577.567" width="16.1756" height="5.5225" transform="rotate(180 1332.08 577.567)" fill="#001049"/>
<rect x="1315.9" y="588.613" width="16.5675" height="5.39187" transform="rotate(-90 1315.9 588.613)" fill="#001049"/>
<rect x="1305.12" y="583.09" width="16.1756" height="5.5225" fill="#001049"/>
<rect x="1342.86" y="561" width="38.6575" height="5.39187" transform="rotate(90 1342.86 561)" fill="#001049"/>
<rect x="1348.25" y="561" width="37.7431" height="5.5225" fill="#001049"/>
<rect x="1385.99" y="561" width="38.6575" height="5.39187" transform="rotate(90 1385.99 561)" fill="#001049"/>
<rect x="1353.64" y="561" width="27.6125" height="5.39187" transform="rotate(90 1353.64 561)" fill="#001049"/>
<rect x="1375.21" y="572.045" width="27.6125" height="5.39187" transform="rotate(90 1375.21 572.045)" fill="#001049"/>
<rect x="1375.21" y="599.658" width="32.3512" height="5.5225" transform="rotate(180 1375.21 599.658)" fill="#001049"/>
<rect x="1375.21" y="577.567" width="16.1756" height="5.5225" transform="rotate(180 1375.21 577.567)" fill="#001049"/>
<rect x="1359.03" y="588.613" width="16.5675" height="5.39187" transform="rotate(-90 1359.03 588.613)" fill="#001049"/>
<rect x="1348.25" y="583.09" width="16.1756" height="5.5225" fill="#001049"/>
<rect x="1385.99" y="561" width="38.6575" height="5.39187" transform="rotate(90 1385.99 561)" fill="#001049"/>
<rect x="1391.39" y="561" width="37.7431" height="5.5225" fill="#001049"/>
<rect x="1429.13" y="561" width="38.6575" height="5.39187" transform="rotate(90 1429.13 561)" fill="#001049"/>
<rect x="1396.78" y="561" width="27.6125" height="5.39187" transform="rotate(90 1396.78 561)" fill="#001049"/>
<rect x="1418.35" y="572.045" width="27.6125" height="5.39187" transform="rotate(90 1418.35 572.045)" fill="#001049"/>
<rect x="1418.35" y="599.658" width="32.3512" height="5.5225" transform="rotate(180 1418.35 599.658)" fill="#001049"/>
<rect x="1418.35" y="577.567" width="16.1756" height="5.5225" transform="rotate(180 1418.35 577.567)" fill="#001049"/>
<rect x="1402.17" y="588.613" width="16.5675" height="5.39187" transform="rotate(-90 1402.17 588.613)" fill="#001049"/>
<rect x="1391.39" y="583.09" width="16.1756" height="5.5225" fill="#001049"/>
<rect x="1429.44" y="561" width="38.6575" height="5.44443" transform="rotate(90 1429.44 561)" fill="#001049"/>
<rect x="1434.89" y="561" width="38.111" height="5.5225" fill="#001049"/>
<rect x="1473" y="561" width="38.6575" height="5.44443" transform="rotate(90 1473 561)" fill="#001049"/>
<rect x="1440.33" y="561" width="27.6125" height="5.44443" transform="rotate(90 1440.33 561)" fill="#001049"/>
<rect x="1462.11" y="572.045" width="27.6125" height="5.44443" transform="rotate(90 1462.11 572.045)" fill="#001049"/>
<rect x="1462.11" y="599.658" width="32.6666" height="5.5225" transform="rotate(180 1462.11 599.658)" fill="#001049"/>
<rect x="1462.11" y="577.567" width="16.3333" height="5.5225" transform="rotate(180 1462.11 577.567)" fill="#001049"/>
<rect x="1445.78" y="588.613" width="16.5675" height="5.44443" transform="rotate(-90 1445.78 588.613)" fill="#001049"/>
<rect x="1434.89" y="583.09" width="16.3333" height="5.5225" fill="#001049"/>
<rect width="1473" height="567" fill="#001049"/>
</svg>
