<svg width="335" height="21" viewBox="0 0 335 21" fill="none" xmlns="http://www.w3.org/2000/svg">
<path d="M1.5 4.95781C1.5 11.1757 12.6859 11.5282 35.5512 11.5282C65.0958 11.5282 117.041 7.87466 152.921 4.82705C188.8 1.77944 209.322 1.54643 221.063 1.50344C235.144 1.45189 239.006 1.98847 241.878 2.49349C244.765 3.00103 246.812 3.94438 248.004 4.95781C252.085 8.42701 234.435 15.6295 224.815 18.5701C221.329 19.6357 215.845 19.5604 210.635 19.4207C208.485 19.363 207.494 18.7494 207.407 18.0503C207.321 17.3512 208.211 16.4363 210.291 15.6166C215.069 13.7337 224.554 12.7263 240.432 11.5282C265.274 9.65378 287.215 10.448 299.399 11.1757C309.88 12.1825 317.563 13.3485 323.363 14.6976C326.391 15.4691 329.591 16.4167 333.5 17.6999" stroke="#FF0000" stroke-width="3" stroke-linecap="round"/>
</svg>
