<svg width="1473" height="927" viewBox="0 0 1473 927" fill="none" xmlns="http://www.w3.org/2000/svg">
<rect x="221.351" y="888" width="38.6575" height="5.39187" transform="rotate(90 221.351 888)" fill="#001049"/>
<rect x="226.742" y="888" width="37.7431" height="5.5225" fill="#001049"/>
<rect x="264.486" y="888" width="38.6575" height="5.39187" transform="rotate(90 264.486 888)" fill="#001049"/>
<rect x="232.135" y="888" width="27.6125" height="5.39187" transform="rotate(90 232.135 888)" fill="#001049"/>
<rect x="253.702" y="899.045" width="27.6125" height="5.39187" transform="rotate(90 253.702 899.045)" fill="#001049"/>
<rect x="253.702" y="926.658" width="32.3512" height="5.5225" transform="rotate(180 253.702 926.658)" fill="#001049"/>
<rect x="253.702" y="904.567" width="16.1756" height="5.5225" transform="rotate(180 253.702 904.567)" fill="#001049"/>
<rect x="237.526" y="915.613" width="16.5675" height="5.39187" transform="rotate(-90 237.526 915.613)" fill="#001049"/>
<rect x="226.742" y="910.09" width="16.1756" height="5.5225" fill="#001049"/>
<rect x="264.486" y="888" width="38.6575" height="5.39187" transform="rotate(90 264.486 888)" fill="#001049"/>
<rect x="269.877" y="888" width="37.7431" height="5.5225" fill="#001049"/>
<rect x="307.62" y="888" width="38.6575" height="5.39187" transform="rotate(90 307.62 888)" fill="#001049"/>
<rect x="275.269" y="888" width="27.6125" height="5.39187" transform="rotate(90 275.269 888)" fill="#001049"/>
<rect x="296.837" y="899.045" width="27.6125" height="5.39187" transform="rotate(90 296.837 899.045)" fill="#001049"/>
<rect x="296.837" y="926.658" width="32.3512" height="5.5225" transform="rotate(180 296.837 926.658)" fill="#001049"/>
<rect x="296.837" y="904.567" width="16.1756" height="5.5225" transform="rotate(180 296.837 904.567)" fill="#001049"/>
<rect x="280.661" y="915.613" width="16.5675" height="5.39187" transform="rotate(-90 280.661 915.613)" fill="#001049"/>
<rect x="269.877" y="910.09" width="16.1756" height="5.5225" fill="#001049"/>
<rect x="307.621" y="888" width="38.6575" height="5.39187" transform="rotate(90 307.621 888)" fill="#001049"/>
<rect x="313.012" y="888" width="37.7431" height="5.5225" fill="#001049"/>
<rect x="350.756" y="888" width="38.6575" height="5.39187" transform="rotate(90 350.756 888)" fill="#001049"/>
<rect x="318.404" y="888" width="27.6125" height="5.39187" transform="rotate(90 318.404 888)" fill="#001049"/>
<rect x="339.972" y="899.045" width="27.6125" height="5.39187" transform="rotate(90 339.972 899.045)" fill="#001049"/>
<rect x="339.972" y="926.658" width="32.3512" height="5.5225" transform="rotate(180 339.972 926.658)" fill="#001049"/>
<rect x="339.972" y="904.567" width="16.1756" height="5.5225" transform="rotate(180 339.972 904.567)" fill="#001049"/>
<rect x="323.796" y="915.613" width="16.5675" height="5.39187" transform="rotate(-90 323.796 915.613)" fill="#001049"/>
<rect x="313.012" y="910.09" width="16.1756" height="5.5225" fill="#001049"/>
<rect x="350.756" y="888" width="38.6575" height="5.39187" transform="rotate(90 350.756 888)" fill="#001049"/>
<rect x="356.148" y="888" width="37.7431" height="5.5225" fill="#001049"/>
<rect x="393.891" y="888" width="38.6575" height="5.39187" transform="rotate(90 393.891 888)" fill="#001049"/>
<rect x="361.54" y="888" width="27.6125" height="5.39187" transform="rotate(90 361.54 888)" fill="#001049"/>
<rect x="383.107" y="899.045" width="27.6125" height="5.39187" transform="rotate(90 383.107 899.045)" fill="#001049"/>
<rect x="383.107" y="926.658" width="32.3512" height="5.5225" transform="rotate(180 383.107 926.658)" fill="#001049"/>
<rect x="383.107" y="904.567" width="16.1756" height="5.5225" transform="rotate(180 383.107 904.567)" fill="#001049"/>
<rect x="366.932" y="915.613" width="16.5675" height="5.39187" transform="rotate(-90 366.932 915.613)" fill="#001049"/>
<rect x="356.148" y="910.09" width="16.1756" height="5.5225" fill="#001049"/>
<rect x="393.891" y="888" width="38.6575" height="5.39187" transform="rotate(90 393.891 888)" fill="#001049"/>
<rect x="399.282" y="888" width="37.7431" height="5.5225" fill="#001049"/>
<rect x="437.026" y="888" width="38.6575" height="5.39187" transform="rotate(90 437.026 888)" fill="#001049"/>
<rect x="404.675" y="888" width="27.6125" height="5.39187" transform="rotate(90 404.675 888)" fill="#001049"/>
<rect x="426.242" y="899.045" width="27.6125" height="5.39187" transform="rotate(90 426.242 899.045)" fill="#001049"/>
<rect x="426.242" y="926.658" width="32.3512" height="5.5225" transform="rotate(180 426.242 926.658)" fill="#001049"/>
<rect x="426.242" y="904.567" width="16.1756" height="5.5225" transform="rotate(180 426.242 904.567)" fill="#001049"/>
<rect x="410.066" y="915.613" width="16.5675" height="5.39187" transform="rotate(-90 410.066 915.613)" fill="#001049"/>
<rect x="399.282" y="910.09" width="16.1756" height="5.5225" fill="#001049"/>
<rect x="5.39185" y="889" width="36.6575" height="5.39187" transform="rotate(90 5.39185 889)" fill="#001049"/>
<rect x="10.7837" y="889" width="37.7431" height="5.23679" fill="#001049"/>
<rect x="48.5266" y="889" width="36.6575" height="5.39187" transform="rotate(90 48.5266 889)" fill="#001049"/>
<rect x="16.1755" y="889" width="26.1839" height="5.39187" transform="rotate(90 16.1755 889)" fill="#001049"/>
<rect x="37.7427" y="899.473" width="26.1839" height="5.39187" transform="rotate(90 37.7427 899.473)" fill="#001049"/>
<rect x="37.7427" y="925.658" width="32.3512" height="5.23679" transform="rotate(180 37.7427 925.658)" fill="#001049"/>
<rect x="37.7427" y="904.71" width="16.1756" height="5.23679" transform="rotate(180 37.7427 904.71)" fill="#001049"/>
<rect x="21.5674" y="915.184" width="15.7104" height="5.39187" transform="rotate(-90 21.5674 915.184)" fill="#001049"/>
<rect x="10.7837" y="909.947" width="16.1756" height="5.23679" fill="#001049"/>
<rect x="48.3921" y="889" width="36.6575" height="5.39187" transform="rotate(90 48.3921 889)" fill="#001049"/>
<rect x="53.7839" y="889" width="37.7431" height="5.23679" fill="#001049"/>
<rect x="91.5266" y="889" width="36.6575" height="5.39187" transform="rotate(90 91.5266 889)" fill="#001049"/>
<rect x="59.1755" y="889" width="26.1839" height="5.39187" transform="rotate(90 59.1755 889)" fill="#001049"/>
<rect x="80.7432" y="899.473" width="26.1839" height="5.39187" transform="rotate(90 80.7432 899.473)" fill="#001049"/>
<rect x="80.7432" y="925.658" width="32.3512" height="5.23679" transform="rotate(180 80.7432 925.658)" fill="#001049"/>
<rect x="80.7432" y="904.71" width="16.1756" height="5.23679" transform="rotate(180 80.7432 904.71)" fill="#001049"/>
<rect x="64.5674" y="915.184" width="15.7104" height="5.39187" transform="rotate(-90 64.5674 915.184)" fill="#001049"/>
<rect x="53.7837" y="909.947" width="16.1756" height="5.23679" fill="#001049"/>
<rect x="91.3918" y="889" width="36.6575" height="5.39187" transform="rotate(90 91.3918 889)" fill="#001049"/>
<rect x="96.7837" y="889" width="37.7431" height="5.23679" fill="#001049"/>
<rect x="134.527" y="889" width="36.6575" height="5.39187" transform="rotate(90 134.527 889)" fill="#001049"/>
<rect x="102.176" y="889" width="26.1839" height="5.39187" transform="rotate(90 102.176 889)" fill="#001049"/>
<rect x="123.743" y="899.473" width="26.1839" height="5.39187" transform="rotate(90 123.743 899.473)" fill="#001049"/>
<rect x="123.743" y="925.658" width="32.3512" height="5.23679" transform="rotate(180 123.743 925.658)" fill="#001049"/>
<rect x="123.743" y="904.71" width="16.1756" height="5.23679" transform="rotate(180 123.743 904.71)" fill="#001049"/>
<rect x="107.568" y="915.184" width="15.7104" height="5.39187" transform="rotate(-90 107.568 915.184)" fill="#001049"/>
<rect x="96.7837" y="909.947" width="16.1756" height="5.23679" fill="#001049"/>
<rect x="134.392" y="889" width="36.6575" height="5.39187" transform="rotate(90 134.392 889)" fill="#001049"/>
<rect x="139.784" y="889" width="37.7431" height="5.23679" fill="#001049"/>
<rect x="177.527" y="889" width="36.6575" height="5.39187" transform="rotate(90 177.527 889)" fill="#001049"/>
<rect x="145.176" y="889" width="26.1839" height="5.39187" transform="rotate(90 145.176 889)" fill="#001049"/>
<rect x="166.744" y="899.473" width="26.1839" height="5.39187" transform="rotate(90 166.744 899.473)" fill="#001049"/>
<rect x="166.744" y="925.657" width="32.3512" height="5.23679" transform="rotate(180 166.744 925.657)" fill="#001049"/>
<rect x="166.744" y="904.71" width="16.1756" height="5.23679" transform="rotate(180 166.744 904.71)" fill="#001049"/>
<rect x="150.567" y="915.184" width="15.7104" height="5.39187" transform="rotate(-90 150.567 915.184)" fill="#001049"/>
<rect x="139.784" y="909.947" width="16.1756" height="5.23679" fill="#001049"/>
<rect x="177.392" y="888" width="38.6575" height="5.39187" transform="rotate(90 177.392 888)" fill="#001049"/>
<rect x="182.784" y="888" width="37.7431" height="5.5225" fill="#001049"/>
<rect x="220.527" y="888" width="38.6575" height="5.39187" transform="rotate(90 220.527 888)" fill="#001049"/>
<rect x="188.176" y="888" width="27.6125" height="5.39187" transform="rotate(90 188.176 888)" fill="#001049"/>
<rect x="209.743" y="899.045" width="27.6125" height="5.39187" transform="rotate(90 209.743 899.045)" fill="#001049"/>
<rect x="209.743" y="926.657" width="32.3512" height="5.5225" transform="rotate(180 209.743 926.657)" fill="#001049"/>
<rect x="209.743" y="904.567" width="16.1756" height="5.5225" transform="rotate(180 209.743 904.567)" fill="#001049"/>
<rect x="193.567" y="915.612" width="16.5675" height="5.39187" transform="rotate(-90 193.567 915.612)" fill="#001049"/>
<rect x="182.784" y="910.09" width="16.1756" height="5.5225" fill="#001049"/>
<rect x="437.026" y="888" width="38.6575" height="5.39187" transform="rotate(90 437.026 888)" fill="#001049"/>
<rect x="442.417" y="888" width="37.7431" height="5.5225" fill="#001049"/>
<rect x="480.161" y="888" width="38.6575" height="5.39187" transform="rotate(90 480.161 888)" fill="#001049"/>
<rect x="447.809" y="888" width="27.6125" height="5.39187" transform="rotate(90 447.809 888)" fill="#001049"/>
<rect x="469.377" y="899.045" width="27.6125" height="5.39187" transform="rotate(90 469.377 899.045)" fill="#001049"/>
<rect x="469.377" y="926.658" width="32.3512" height="5.5225" transform="rotate(180 469.377 926.658)" fill="#001049"/>
<rect x="469.377" y="904.567" width="16.1756" height="5.5225" transform="rotate(180 469.377 904.567)" fill="#001049"/>
<rect x="453.201" y="915.613" width="16.5675" height="5.39187" transform="rotate(-90 453.201 915.613)" fill="#001049"/>
<rect x="442.417" y="910.09" width="16.1756" height="5.5225" fill="#001049"/>
<rect x="480.162" y="888" width="38.6575" height="5.39187" transform="rotate(90 480.162 888)" fill="#001049"/>
<rect x="485.554" y="888" width="37.7431" height="5.5225" fill="#001049"/>
<rect x="523.297" y="888" width="38.6575" height="5.39187" transform="rotate(90 523.297 888)" fill="#001049"/>
<rect x="490.946" y="888" width="27.6125" height="5.39187" transform="rotate(90 490.946 888)" fill="#001049"/>
<rect x="512.513" y="899.045" width="27.6125" height="5.39187" transform="rotate(90 512.513 899.045)" fill="#001049"/>
<rect x="512.513" y="926.658" width="32.3512" height="5.5225" transform="rotate(180 512.513 926.658)" fill="#001049"/>
<rect x="512.513" y="904.567" width="16.1756" height="5.5225" transform="rotate(180 512.513 904.567)" fill="#001049"/>
<rect x="496.338" y="915.613" width="16.5675" height="5.39187" transform="rotate(-90 496.338 915.613)" fill="#001049"/>
<rect x="485.554" y="910.09" width="16.1756" height="5.5225" fill="#001049"/>
<rect x="523.296" y="888" width="38.6575" height="5.39187" transform="rotate(90 523.296 888)" fill="#001049"/>
<rect x="528.687" y="888" width="37.7431" height="5.5225" fill="#001049"/>
<rect x="566.431" y="888" width="38.6575" height="5.39187" transform="rotate(90 566.431 888)" fill="#001049"/>
<rect x="534.079" y="888" width="27.6125" height="5.39187" transform="rotate(90 534.079 888)" fill="#001049"/>
<rect x="555.647" y="899.045" width="27.6125" height="5.39187" transform="rotate(90 555.647 899.045)" fill="#001049"/>
<rect x="555.647" y="926.658" width="32.3512" height="5.5225" transform="rotate(180 555.647 926.658)" fill="#001049"/>
<rect x="555.647" y="904.567" width="16.1756" height="5.5225" transform="rotate(180 555.647 904.567)" fill="#001049"/>
<rect x="539.471" y="915.613" width="16.5675" height="5.39187" transform="rotate(-90 539.471 915.613)" fill="#001049"/>
<rect x="528.687" y="910.09" width="16.1756" height="5.5225" fill="#001049"/>
<rect x="566.431" y="888" width="38.6575" height="5.39187" transform="rotate(90 566.431 888)" fill="#001049"/>
<rect x="571.822" y="888" width="37.7431" height="5.5225" fill="#001049"/>
<rect x="609.565" y="888" width="38.6575" height="5.39187" transform="rotate(90 609.565 888)" fill="#001049"/>
<rect x="577.214" y="888" width="27.6125" height="5.39187" transform="rotate(90 577.214 888)" fill="#001049"/>
<rect x="598.782" y="899.045" width="27.6125" height="5.39187" transform="rotate(90 598.782 899.045)" fill="#001049"/>
<rect x="598.782" y="926.658" width="32.3512" height="5.5225" transform="rotate(180 598.782 926.658)" fill="#001049"/>
<rect x="598.782" y="904.567" width="16.1756" height="5.5225" transform="rotate(180 598.782 904.567)" fill="#001049"/>
<rect x="582.606" y="915.613" width="16.5675" height="5.39187" transform="rotate(-90 582.606 915.613)" fill="#001049"/>
<rect x="571.822" y="910.09" width="16.1756" height="5.5225" fill="#001049"/>
<rect x="609.566" y="888" width="38.6575" height="5.39187" transform="rotate(90 609.566 888)" fill="#001049"/>
<rect x="614.958" y="888" width="37.7431" height="5.5225" fill="#001049"/>
<rect x="652.701" y="888" width="38.6575" height="5.39187" transform="rotate(90 652.701 888)" fill="#001049"/>
<rect x="620.349" y="888" width="27.6125" height="5.39187" transform="rotate(90 620.349 888)" fill="#001049"/>
<rect x="641.917" y="899.045" width="27.6125" height="5.39187" transform="rotate(90 641.917 899.045)" fill="#001049"/>
<rect x="641.917" y="926.658" width="32.3512" height="5.5225" transform="rotate(180 641.917 926.658)" fill="#001049"/>
<rect x="641.917" y="904.567" width="16.1756" height="5.5225" transform="rotate(180 641.917 904.567)" fill="#001049"/>
<rect x="625.741" y="915.613" width="16.5675" height="5.39187" transform="rotate(-90 625.741 915.613)" fill="#001049"/>
<rect x="614.958" y="910.09" width="16.1756" height="5.5225" fill="#001049"/>
<rect x="652.701" y="888" width="38.6575" height="5.39187" transform="rotate(90 652.701 888)" fill="#001049"/>
<rect x="658.092" y="888" width="37.7431" height="5.5225" fill="#001049"/>
<rect x="695.836" y="888" width="38.6575" height="5.39187" transform="rotate(90 695.836 888)" fill="#001049"/>
<rect x="663.484" y="888" width="27.6125" height="5.39187" transform="rotate(90 663.484 888)" fill="#001049"/>
<rect x="685.052" y="899.045" width="27.6125" height="5.39187" transform="rotate(90 685.052 899.045)" fill="#001049"/>
<rect x="685.052" y="926.658" width="32.3512" height="5.5225" transform="rotate(180 685.052 926.658)" fill="#001049"/>
<rect x="685.052" y="904.567" width="16.1756" height="5.5225" transform="rotate(180 685.052 904.567)" fill="#001049"/>
<rect x="668.876" y="915.613" width="16.5675" height="5.39187" transform="rotate(-90 668.876 915.613)" fill="#001049"/>
<rect x="658.092" y="910.09" width="16.1756" height="5.5225" fill="#001049"/>
<rect x="695.838" y="888" width="38.6575" height="5.39187" transform="rotate(90 695.838 888)" fill="#001049"/>
<rect x="701.23" y="888" width="37.7431" height="5.5225" fill="#001049"/>
<rect x="738.973" y="888" width="38.6575" height="5.39187" transform="rotate(90 738.973 888)" fill="#001049"/>
<rect x="706.622" y="888" width="27.6125" height="5.39187" transform="rotate(90 706.622 888)" fill="#001049"/>
<rect x="728.19" y="899.045" width="27.6125" height="5.39187" transform="rotate(90 728.19 899.045)" fill="#001049"/>
<rect x="728.19" y="926.658" width="32.3512" height="5.5225" transform="rotate(180 728.19 926.658)" fill="#001049"/>
<rect x="728.19" y="904.567" width="16.1756" height="5.5225" transform="rotate(180 728.19 904.567)" fill="#001049"/>
<rect x="712.014" y="915.613" width="16.5675" height="5.39187" transform="rotate(-90 712.014 915.613)" fill="#001049"/>
<rect x="701.23" y="910.09" width="16.1756" height="5.5225" fill="#001049"/>
<rect x="738.97" y="888" width="38.6575" height="5.39187" transform="rotate(90 738.97 888)" fill="#001049"/>
<rect x="744.362" y="888" width="37.7431" height="5.5225" fill="#001049"/>
<rect x="782.105" y="888" width="38.6575" height="5.39187" transform="rotate(90 782.105 888)" fill="#001049"/>
<rect x="749.754" y="888" width="27.6125" height="5.39187" transform="rotate(90 749.754 888)" fill="#001049"/>
<rect x="771.321" y="899.045" width="27.6125" height="5.39187" transform="rotate(90 771.321 899.045)" fill="#001049"/>
<rect x="771.321" y="926.658" width="32.3512" height="5.5225" transform="rotate(180 771.321 926.658)" fill="#001049"/>
<rect x="771.321" y="904.567" width="16.1756" height="5.5225" transform="rotate(180 771.321 904.567)" fill="#001049"/>
<rect x="755.146" y="915.613" width="16.5675" height="5.39187" transform="rotate(-90 755.146 915.613)" fill="#001049"/>
<rect x="744.362" y="910.09" width="16.1756" height="5.5225" fill="#001049"/>
<rect x="782.105" y="888" width="38.6575" height="5.39187" transform="rotate(90 782.105 888)" fill="#001049"/>
<rect x="787.497" y="888" width="37.7431" height="5.5225" fill="#001049"/>
<rect x="825.24" y="888" width="38.6575" height="5.39187" transform="rotate(90 825.24 888)" fill="#001049"/>
<rect x="792.889" y="888" width="27.6125" height="5.39187" transform="rotate(90 792.889 888)" fill="#001049"/>
<rect x="814.456" y="899.045" width="27.6125" height="5.39187" transform="rotate(90 814.456 899.045)" fill="#001049"/>
<rect x="814.456" y="926.658" width="32.3512" height="5.5225" transform="rotate(180 814.456 926.658)" fill="#001049"/>
<rect x="814.456" y="904.567" width="16.1756" height="5.5225" transform="rotate(180 814.456 904.567)" fill="#001049"/>
<rect x="798.281" y="915.613" width="16.5675" height="5.39187" transform="rotate(-90 798.281 915.613)" fill="#001049"/>
<rect x="787.497" y="910.09" width="16.1756" height="5.5225" fill="#001049"/>
<rect x="825.242" y="888" width="38.6575" height="5.39187" transform="rotate(90 825.242 888)" fill="#001049"/>
<rect x="830.634" y="888" width="37.7431" height="5.5225" fill="#001049"/>
<rect x="868.377" y="888" width="38.6575" height="5.39187" transform="rotate(90 868.377 888)" fill="#001049"/>
<rect x="836.026" y="888" width="27.6125" height="5.39187" transform="rotate(90 836.026 888)" fill="#001049"/>
<rect x="857.593" y="899.045" width="27.6125" height="5.39187" transform="rotate(90 857.593 899.045)" fill="#001049"/>
<rect x="857.593" y="926.658" width="32.3512" height="5.5225" transform="rotate(180 857.593 926.658)" fill="#001049"/>
<rect x="857.593" y="904.567" width="16.1756" height="5.5225" transform="rotate(180 857.593 904.567)" fill="#001049"/>
<rect x="841.418" y="915.613" width="16.5675" height="5.39187" transform="rotate(-90 841.418 915.613)" fill="#001049"/>
<rect x="830.634" y="910.09" width="16.1756" height="5.5225" fill="#001049"/>
<rect x="868.377" y="888" width="38.6575" height="5.39187" transform="rotate(90 868.377 888)" fill="#001049"/>
<rect x="873.769" y="888" width="37.7431" height="5.5225" fill="#001049"/>
<rect x="911.512" y="888" width="38.6575" height="5.39187" transform="rotate(90 911.512 888)" fill="#001049"/>
<rect x="879.16" y="888" width="27.6125" height="5.39187" transform="rotate(90 879.16 888)" fill="#001049"/>
<rect x="900.728" y="899.045" width="27.6125" height="5.39187" transform="rotate(90 900.728 899.045)" fill="#001049"/>
<rect x="900.728" y="926.658" width="32.3512" height="5.5225" transform="rotate(180 900.728 926.658)" fill="#001049"/>
<rect x="900.728" y="904.567" width="16.1756" height="5.5225" transform="rotate(180 900.728 904.567)" fill="#001049"/>
<rect x="884.552" y="915.613" width="16.5675" height="5.39187" transform="rotate(-90 884.552 915.613)" fill="#001049"/>
<rect x="873.769" y="910.09" width="16.1756" height="5.5225" fill="#001049"/>
<rect x="911.513" y="888" width="38.6575" height="5.39187" transform="rotate(90 911.513 888)" fill="#001049"/>
<rect x="916.905" y="888" width="37.7431" height="5.5225" fill="#001049"/>
<rect x="954.648" y="888" width="38.6575" height="5.39187" transform="rotate(90 954.648 888)" fill="#001049"/>
<rect x="922.297" y="888" width="27.6125" height="5.39187" transform="rotate(90 922.297 888)" fill="#001049"/>
<rect x="943.864" y="899.045" width="27.6125" height="5.39187" transform="rotate(90 943.864 899.045)" fill="#001049"/>
<rect x="943.864" y="926.658" width="32.3512" height="5.5225" transform="rotate(180 943.864 926.658)" fill="#001049"/>
<rect x="943.864" y="904.567" width="16.1756" height="5.5225" transform="rotate(180 943.864 904.567)" fill="#001049"/>
<rect x="927.688" y="915.613" width="16.5675" height="5.39187" transform="rotate(-90 927.688 915.613)" fill="#001049"/>
<rect x="916.905" y="910.09" width="16.1756" height="5.5225" fill="#001049"/>
<rect x="954.645" y="888" width="38.6575" height="5.39187" transform="rotate(90 954.645 888)" fill="#001049"/>
<rect x="960.036" y="888" width="37.7431" height="5.5225" fill="#001049"/>
<rect x="997.779" y="888" width="38.6575" height="5.39187" transform="rotate(90 997.779 888)" fill="#001049"/>
<rect x="965.428" y="888" width="27.6125" height="5.39187" transform="rotate(90 965.428 888)" fill="#001049"/>
<rect x="986.996" y="899.045" width="27.6125" height="5.39187" transform="rotate(90 986.996 899.045)" fill="#001049"/>
<rect x="986.996" y="926.658" width="32.3512" height="5.5225" transform="rotate(180 986.996 926.658)" fill="#001049"/>
<rect x="986.996" y="904.567" width="16.1756" height="5.5225" transform="rotate(180 986.996 904.567)" fill="#001049"/>
<rect x="970.82" y="915.613" width="16.5675" height="5.39187" transform="rotate(-90 970.82 915.613)" fill="#001049"/>
<rect x="960.036" y="910.09" width="16.1756" height="5.5225" fill="#001049"/>
<rect x="997.781" y="888" width="38.6575" height="5.39187" transform="rotate(90 997.781 888)" fill="#001049"/>
<rect x="1003.17" y="888" width="37.7431" height="5.5225" fill="#001049"/>
<rect x="1040.92" y="888" width="38.6575" height="5.39187" transform="rotate(90 1040.92 888)" fill="#001049"/>
<rect x="1008.57" y="888" width="27.6125" height="5.39187" transform="rotate(90 1008.57 888)" fill="#001049"/>
<rect x="1030.13" y="899.045" width="27.6125" height="5.39187" transform="rotate(90 1030.13 899.045)" fill="#001049"/>
<rect x="1030.13" y="926.658" width="32.3512" height="5.5225" transform="rotate(180 1030.13 926.658)" fill="#001049"/>
<rect x="1030.13" y="904.567" width="16.1756" height="5.5225" transform="rotate(180 1030.13 904.567)" fill="#001049"/>
<rect x="1013.96" y="915.613" width="16.5675" height="5.39187" transform="rotate(-90 1013.96 915.613)" fill="#001049"/>
<rect x="1003.17" y="910.09" width="16.1756" height="5.5225" fill="#001049"/>
<rect x="1040.91" y="888" width="38.6575" height="5.39187" transform="rotate(90 1040.91 888)" fill="#001049"/>
<rect x="1046.31" y="888" width="37.7431" height="5.5225" fill="#001049"/>
<rect x="1084.05" y="888" width="38.6575" height="5.39187" transform="rotate(90 1084.05 888)" fill="#001049"/>
<rect x="1051.7" y="888" width="27.6125" height="5.39187" transform="rotate(90 1051.7 888)" fill="#001049"/>
<rect x="1073.27" y="899.045" width="27.6125" height="5.39187" transform="rotate(90 1073.27 899.045)" fill="#001049"/>
<rect x="1073.27" y="926.658" width="32.3512" height="5.5225" transform="rotate(180 1073.27 926.658)" fill="#001049"/>
<rect x="1073.27" y="904.567" width="16.1756" height="5.5225" transform="rotate(180 1073.27 904.567)" fill="#001049"/>
<rect x="1057.09" y="915.613" width="16.5675" height="5.39187" transform="rotate(-90 1057.09 915.613)" fill="#001049"/>
<rect x="1046.31" y="910.09" width="16.1756" height="5.5225" fill="#001049"/>
<rect x="1084.05" y="888" width="38.6575" height="5.39187" transform="rotate(90 1084.05 888)" fill="#001049"/>
<rect x="1089.44" y="888" width="37.7431" height="5.5225" fill="#001049"/>
<rect x="1127.18" y="888" width="38.6575" height="5.39187" transform="rotate(90 1127.18 888)" fill="#001049"/>
<rect x="1094.83" y="888" width="27.6125" height="5.39187" transform="rotate(90 1094.83 888)" fill="#001049"/>
<rect x="1116.4" y="899.045" width="27.6125" height="5.39187" transform="rotate(90 1116.4 899.045)" fill="#001049"/>
<rect x="1116.4" y="926.658" width="32.3512" height="5.5225" transform="rotate(180 1116.4 926.658)" fill="#001049"/>
<rect x="1116.4" y="904.567" width="16.1756" height="5.5225" transform="rotate(180 1116.4 904.567)" fill="#001049"/>
<rect x="1100.23" y="915.613" width="16.5675" height="5.39187" transform="rotate(-90 1100.23 915.613)" fill="#001049"/>
<rect x="1089.44" y="910.09" width="16.1756" height="5.5225" fill="#001049"/>
<rect x="1127.18" y="888" width="38.6575" height="5.39187" transform="rotate(90 1127.18 888)" fill="#001049"/>
<rect x="1132.58" y="888" width="37.7431" height="5.5225" fill="#001049"/>
<rect x="1170.32" y="888" width="38.6575" height="5.39187" transform="rotate(90 1170.32 888)" fill="#001049"/>
<rect x="1137.97" y="888" width="27.6125" height="5.39187" transform="rotate(90 1137.97 888)" fill="#001049"/>
<rect x="1159.54" y="899.045" width="27.6125" height="5.39187" transform="rotate(90 1159.54 899.045)" fill="#001049"/>
<rect x="1159.54" y="926.658" width="32.3512" height="5.5225" transform="rotate(180 1159.54 926.658)" fill="#001049"/>
<rect x="1159.54" y="904.567" width="16.1756" height="5.5225" transform="rotate(180 1159.54 904.567)" fill="#001049"/>
<rect x="1143.36" y="915.613" width="16.5675" height="5.39187" transform="rotate(-90 1143.36 915.613)" fill="#001049"/>
<rect x="1132.58" y="910.09" width="16.1756" height="5.5225" fill="#001049"/>
<rect x="1170.32" y="888" width="38.6575" height="5.39187" transform="rotate(90 1170.32 888)" fill="#001049"/>
<rect x="1175.71" y="888" width="37.7431" height="5.5225" fill="#001049"/>
<rect x="1213.45" y="888" width="38.6575" height="5.39187" transform="rotate(90 1213.45 888)" fill="#001049"/>
<rect x="1181.1" y="888" width="27.6125" height="5.39187" transform="rotate(90 1181.1 888)" fill="#001049"/>
<rect x="1202.67" y="899.045" width="27.6125" height="5.39187" transform="rotate(90 1202.67 899.045)" fill="#001049"/>
<rect x="1202.67" y="926.658" width="32.3512" height="5.5225" transform="rotate(180 1202.67 926.658)" fill="#001049"/>
<rect x="1202.67" y="904.567" width="16.1756" height="5.5225" transform="rotate(180 1202.67 904.567)" fill="#001049"/>
<rect x="1186.5" y="915.613" width="16.5675" height="5.39187" transform="rotate(-90 1186.5 915.613)" fill="#001049"/>
<rect x="1175.71" y="910.09" width="16.1756" height="5.5225" fill="#001049"/>
<rect x="1213.45" y="888" width="38.6575" height="5.39187" transform="rotate(90 1213.45 888)" fill="#001049"/>
<rect x="1218.85" y="888" width="37.7431" height="5.5225" fill="#001049"/>
<rect x="1256.59" y="888" width="38.6575" height="5.39187" transform="rotate(90 1256.59 888)" fill="#001049"/>
<rect x="1224.24" y="888" width="27.6125" height="5.39187" transform="rotate(90 1224.24 888)" fill="#001049"/>
<rect x="1245.81" y="899.045" width="27.6125" height="5.39187" transform="rotate(90 1245.81 899.045)" fill="#001049"/>
<rect x="1245.81" y="926.658" width="32.3512" height="5.5225" transform="rotate(180 1245.81 926.658)" fill="#001049"/>
<rect x="1245.81" y="904.567" width="16.1756" height="5.5225" transform="rotate(180 1245.81 904.567)" fill="#001049"/>
<rect x="1229.63" y="915.613" width="16.5675" height="5.39187" transform="rotate(-90 1229.63 915.613)" fill="#001049"/>
<rect x="1218.85" y="910.09" width="16.1756" height="5.5225" fill="#001049"/>
<rect x="1256.59" y="888" width="38.6575" height="5.39187" transform="rotate(90 1256.59 888)" fill="#001049"/>
<rect x="1261.98" y="888" width="37.7431" height="5.5225" fill="#001049"/>
<rect x="1299.72" y="888" width="38.6575" height="5.39187" transform="rotate(90 1299.72 888)" fill="#001049"/>
<rect x="1267.37" y="888" width="27.6125" height="5.39187" transform="rotate(90 1267.37 888)" fill="#001049"/>
<rect x="1288.94" y="899.045" width="27.6125" height="5.39187" transform="rotate(90 1288.94 899.045)" fill="#001049"/>
<rect x="1288.94" y="926.658" width="32.3512" height="5.5225" transform="rotate(180 1288.94 926.658)" fill="#001049"/>
<rect x="1288.94" y="904.567" width="16.1756" height="5.5225" transform="rotate(180 1288.94 904.567)" fill="#001049"/>
<rect x="1272.77" y="915.613" width="16.5675" height="5.39187" transform="rotate(-90 1272.77 915.613)" fill="#001049"/>
<rect x="1261.98" y="910.09" width="16.1756" height="5.5225" fill="#001049"/>
<rect x="1299.72" y="888" width="38.6575" height="5.39187" transform="rotate(90 1299.72 888)" fill="#001049"/>
<rect x="1305.12" y="888" width="37.7431" height="5.5225" fill="#001049"/>
<rect x="1342.86" y="888" width="38.6575" height="5.39187" transform="rotate(90 1342.86 888)" fill="#001049"/>
<rect x="1310.51" y="888" width="27.6125" height="5.39187" transform="rotate(90 1310.51 888)" fill="#001049"/>
<rect x="1332.08" y="899.045" width="27.6125" height="5.39187" transform="rotate(90 1332.08 899.045)" fill="#001049"/>
<rect x="1332.08" y="926.658" width="32.3512" height="5.5225" transform="rotate(180 1332.08 926.658)" fill="#001049"/>
<rect x="1332.08" y="904.567" width="16.1756" height="5.5225" transform="rotate(180 1332.08 904.567)" fill="#001049"/>
<rect x="1315.9" y="915.613" width="16.5675" height="5.39187" transform="rotate(-90 1315.9 915.613)" fill="#001049"/>
<rect x="1305.12" y="910.09" width="16.1756" height="5.5225" fill="#001049"/>
<rect x="1342.86" y="888" width="38.6575" height="5.39187" transform="rotate(90 1342.86 888)" fill="#001049"/>
<rect x="1348.25" y="888" width="37.7431" height="5.5225" fill="#001049"/>
<rect x="1385.99" y="888" width="38.6575" height="5.39187" transform="rotate(90 1385.99 888)" fill="#001049"/>
<rect x="1353.64" y="888" width="27.6125" height="5.39187" transform="rotate(90 1353.64 888)" fill="#001049"/>
<rect x="1375.21" y="899.045" width="27.6125" height="5.39187" transform="rotate(90 1375.21 899.045)" fill="#001049"/>
<rect x="1375.21" y="926.658" width="32.3512" height="5.5225" transform="rotate(180 1375.21 926.658)" fill="#001049"/>
<rect x="1375.21" y="904.567" width="16.1756" height="5.5225" transform="rotate(180 1375.21 904.567)" fill="#001049"/>
<rect x="1359.04" y="915.613" width="16.5675" height="5.39187" transform="rotate(-90 1359.04 915.613)" fill="#001049"/>
<rect x="1348.25" y="910.09" width="16.1756" height="5.5225" fill="#001049"/>
<rect x="1385.99" y="888" width="38.6575" height="5.39187" transform="rotate(90 1385.99 888)" fill="#001049"/>
<rect x="1391.39" y="888" width="37.7431" height="5.5225" fill="#001049"/>
<rect x="1429.13" y="888" width="38.6575" height="5.39187" transform="rotate(90 1429.13 888)" fill="#001049"/>
<rect x="1396.78" y="888" width="27.6125" height="5.39187" transform="rotate(90 1396.78 888)" fill="#001049"/>
<rect x="1418.35" y="899.045" width="27.6125" height="5.39187" transform="rotate(90 1418.35 899.045)" fill="#001049"/>
<rect x="1418.35" y="926.658" width="32.3512" height="5.5225" transform="rotate(180 1418.35 926.658)" fill="#001049"/>
<rect x="1418.35" y="904.567" width="16.1756" height="5.5225" transform="rotate(180 1418.35 904.567)" fill="#001049"/>
<rect x="1402.17" y="915.613" width="16.5675" height="5.39187" transform="rotate(-90 1402.17 915.613)" fill="#001049"/>
<rect x="1391.39" y="910.09" width="16.1756" height="5.5225" fill="#001049"/>
<rect x="1429.44" y="888" width="38.6575" height="5.44443" transform="rotate(90 1429.44 888)" fill="#001049"/>
<rect x="1434.89" y="888" width="38.111" height="5.5225" fill="#001049"/>
<rect x="1473" y="888" width="38.6575" height="5.44443" transform="rotate(90 1473 888)" fill="#001049"/>
<rect x="1440.33" y="888" width="27.6125" height="5.44443" transform="rotate(90 1440.33 888)" fill="#001049"/>
<rect x="1462.11" y="899.045" width="27.6125" height="5.44443" transform="rotate(90 1462.11 899.045)" fill="#001049"/>
<rect x="1462.11" y="926.658" width="32.6666" height="5.5225" transform="rotate(180 1462.11 926.658)" fill="#001049"/>
<rect x="1462.11" y="904.567" width="16.3333" height="5.5225" transform="rotate(180 1462.11 904.567)" fill="#001049"/>
<rect x="1445.78" y="915.612" width="16.5675" height="5.44443" transform="rotate(-90 1445.78 915.612)" fill="#001049"/>
<rect x="1434.89" y="910.09" width="16.3333" height="5.5225" fill="#001049"/>
<rect x="1251.65" y="38.6577" width="38.6575" height="5.39187" transform="rotate(-90 1251.65 38.6577)" fill="#001049"/>
<rect x="1246.26" y="38.6577" width="37.7431" height="5.5225" transform="rotate(-180 1246.26 38.6577)" fill="#001049"/>
<rect x="1208.51" y="38.6577" width="38.6575" height="5.39187" transform="rotate(-90 1208.51 38.6577)" fill="#001049"/>
<rect x="1240.87" y="38.6577" width="27.6125" height="5.39187" transform="rotate(-90 1240.87 38.6577)" fill="#001049"/>
<rect x="1219.3" y="27.6128" width="27.6125" height="5.39187" transform="rotate(-90 1219.3 27.6128)" fill="#001049"/>
<rect x="1219.3" width="32.3512" height="5.5225" fill="#001049"/>
<rect x="1219.3" y="22.0903" width="16.1756" height="5.5225" fill="#001049"/>
<rect x="1235.47" y="11.0449" width="16.5675" height="5.39187" transform="rotate(90 1235.47 11.0449)" fill="#001049"/>
<rect x="1246.26" y="16.5674" width="16.1756" height="5.5225" transform="rotate(-180 1246.26 16.5674)" fill="#001049"/>
<rect x="1208.51" y="38.6577" width="38.6575" height="5.39187" transform="rotate(-90 1208.51 38.6577)" fill="#001049"/>
<rect x="1203.12" y="38.6577" width="37.7431" height="5.5225" transform="rotate(-180 1203.12 38.6577)" fill="#001049"/>
<rect x="1165.38" y="38.6577" width="38.6575" height="5.39187" transform="rotate(-90 1165.38 38.6577)" fill="#001049"/>
<rect x="1197.73" y="38.6577" width="27.6125" height="5.39187" transform="rotate(-90 1197.73 38.6577)" fill="#001049"/>
<rect x="1176.16" y="27.6128" width="27.6125" height="5.39187" transform="rotate(-90 1176.16 27.6128)" fill="#001049"/>
<rect x="1176.16" width="32.3512" height="5.5225" fill="#001049"/>
<rect x="1176.16" y="22.0903" width="16.1756" height="5.5225" fill="#001049"/>
<rect x="1192.34" y="11.0449" width="16.5675" height="5.39187" transform="rotate(90 1192.34 11.0449)" fill="#001049"/>
<rect x="1203.12" y="16.5674" width="16.1756" height="5.5225" transform="rotate(-180 1203.12 16.5674)" fill="#001049"/>
<rect x="1165.38" y="38.6577" width="38.6575" height="5.39187" transform="rotate(-90 1165.38 38.6577)" fill="#001049"/>
<rect x="1159.99" y="38.6577" width="37.7431" height="5.5225" transform="rotate(-180 1159.99 38.6577)" fill="#001049"/>
<rect x="1122.24" y="38.6577" width="38.6575" height="5.39187" transform="rotate(-90 1122.24 38.6577)" fill="#001049"/>
<rect x="1154.6" y="38.6577" width="27.6125" height="5.39187" transform="rotate(-90 1154.6 38.6577)" fill="#001049"/>
<rect x="1133.03" y="27.6128" width="27.6125" height="5.39187" transform="rotate(-90 1133.03 27.6128)" fill="#001049"/>
<rect x="1133.03" width="32.3512" height="5.5225" fill="#001049"/>
<rect x="1133.03" y="22.0903" width="16.1756" height="5.5225" fill="#001049"/>
<rect x="1149.2" y="11.0449" width="16.5675" height="5.39187" transform="rotate(90 1149.2 11.0449)" fill="#001049"/>
<rect x="1159.99" y="16.5674" width="16.1756" height="5.5225" transform="rotate(-180 1159.99 16.5674)" fill="#001049"/>
<rect x="1122.24" y="38.6577" width="38.6575" height="5.39187" transform="rotate(-90 1122.24 38.6577)" fill="#001049"/>
<rect x="1116.85" y="38.6577" width="37.7431" height="5.5225" transform="rotate(-180 1116.85 38.6577)" fill="#001049"/>
<rect x="1079.11" y="38.6577" width="38.6575" height="5.39187" transform="rotate(-90 1079.11 38.6577)" fill="#001049"/>
<rect x="1111.46" y="38.6577" width="27.6125" height="5.39187" transform="rotate(-90 1111.46 38.6577)" fill="#001049"/>
<rect x="1089.89" y="27.6128" width="27.6125" height="5.39187" transform="rotate(-90 1089.89 27.6128)" fill="#001049"/>
<rect x="1089.89" width="32.3512" height="5.5225" fill="#001049"/>
<rect x="1089.89" y="22.0903" width="16.1756" height="5.5225" fill="#001049"/>
<rect x="1106.07" y="11.0449" width="16.5675" height="5.39187" transform="rotate(90 1106.07 11.0449)" fill="#001049"/>
<rect x="1116.85" y="16.5674" width="16.1756" height="5.5225" transform="rotate(-180 1116.85 16.5674)" fill="#001049"/>
<rect x="1079.11" y="38.6577" width="38.6575" height="5.39187" transform="rotate(-90 1079.11 38.6577)" fill="#001049"/>
<rect x="1073.72" y="38.6577" width="37.7431" height="5.5225" transform="rotate(-180 1073.72 38.6577)" fill="#001049"/>
<rect x="1035.97" y="38.6577" width="38.6575" height="5.39187" transform="rotate(-90 1035.97 38.6577)" fill="#001049"/>
<rect x="1068.33" y="38.6577" width="27.6125" height="5.39187" transform="rotate(-90 1068.33 38.6577)" fill="#001049"/>
<rect x="1046.76" y="27.6128" width="27.6125" height="5.39187" transform="rotate(-90 1046.76 27.6128)" fill="#001049"/>
<rect x="1046.76" width="32.3512" height="5.5225" fill="#001049"/>
<rect x="1046.76" y="22.0903" width="16.1756" height="5.5225" fill="#001049"/>
<rect x="1062.93" y="11.0449" width="16.5675" height="5.39187" transform="rotate(90 1062.93 11.0449)" fill="#001049"/>
<rect x="1073.72" y="16.5674" width="16.1756" height="5.5225" transform="rotate(-180 1073.72 16.5674)" fill="#001049"/>
<rect x="1467.61" y="37.6577" width="36.6575" height="5.39187" transform="rotate(-90 1467.61 37.6577)" fill="#001049"/>
<rect x="1462.22" y="37.6577" width="37.7431" height="5.23679" transform="rotate(-180 1462.22 37.6577)" fill="#001049"/>
<rect x="1424.47" y="37.6577" width="36.6575" height="5.39187" transform="rotate(-90 1424.47 37.6577)" fill="#001049"/>
<rect x="1456.82" y="37.6577" width="26.1839" height="5.39187" transform="rotate(-90 1456.82 37.6577)" fill="#001049"/>
<rect x="1435.26" y="27.1846" width="26.1839" height="5.39187" transform="rotate(-90 1435.26 27.1846)" fill="#001049"/>
<rect x="1435.26" y="1" width="32.3512" height="5.23679" fill="#001049"/>
<rect x="1435.26" y="21.9478" width="16.1756" height="5.23679" fill="#001049"/>
<rect x="1451.43" y="11.4736" width="15.7104" height="5.39187" transform="rotate(90 1451.43 11.4736)" fill="#001049"/>
<rect x="1462.22" y="16.7104" width="16.1756" height="5.23679" transform="rotate(-180 1462.22 16.7104)" fill="#001049"/>
<rect x="1424.61" y="37.6577" width="36.6575" height="5.39187" transform="rotate(-90 1424.61 37.6577)" fill="#001049"/>
<rect x="1419.22" y="37.6577" width="37.7431" height="5.23679" transform="rotate(-180 1419.22 37.6577)" fill="#001049"/>
<rect x="1381.47" y="37.6577" width="36.6575" height="5.39187" transform="rotate(-90 1381.47 37.6577)" fill="#001049"/>
<rect x="1413.82" y="37.6577" width="26.1839" height="5.39187" transform="rotate(-90 1413.82 37.6577)" fill="#001049"/>
<rect x="1392.26" y="27.1846" width="26.1839" height="5.39187" transform="rotate(-90 1392.26 27.1846)" fill="#001049"/>
<rect x="1392.26" y="1" width="32.3512" height="5.23679" fill="#001049"/>
<rect x="1392.26" y="21.9478" width="16.1756" height="5.23679" fill="#001049"/>
<rect x="1408.43" y="11.4736" width="15.7104" height="5.39187" transform="rotate(90 1408.43 11.4736)" fill="#001049"/>
<rect x="1419.22" y="16.7104" width="16.1756" height="5.23679" transform="rotate(-180 1419.22 16.7104)" fill="#001049"/>
<rect x="1381.61" y="37.6577" width="36.6575" height="5.39187" transform="rotate(-90 1381.61 37.6577)" fill="#001049"/>
<rect x="1376.22" y="37.6577" width="37.7431" height="5.23679" transform="rotate(-180 1376.22 37.6577)" fill="#001049"/>
<rect x="1338.47" y="37.6577" width="36.6575" height="5.39187" transform="rotate(-90 1338.47 37.6577)" fill="#001049"/>
<rect x="1370.82" y="37.6577" width="26.1839" height="5.39187" transform="rotate(-90 1370.82 37.6577)" fill="#001049"/>
<rect x="1349.26" y="27.1846" width="26.1839" height="5.39187" transform="rotate(-90 1349.26 27.1846)" fill="#001049"/>
<rect x="1349.26" y="1" width="32.3512" height="5.23679" fill="#001049"/>
<rect x="1349.26" y="21.9478" width="16.1756" height="5.23679" fill="#001049"/>
<rect x="1365.43" y="11.4736" width="15.7104" height="5.39187" transform="rotate(90 1365.43 11.4736)" fill="#001049"/>
<rect x="1376.22" y="16.7104" width="16.1756" height="5.23679" transform="rotate(-180 1376.22 16.7104)" fill="#001049"/>
<rect x="1338.61" y="37.6577" width="36.6575" height="5.39187" transform="rotate(-90 1338.61 37.6577)" fill="#001049"/>
<rect x="1333.22" y="37.6577" width="37.7431" height="5.23679" transform="rotate(-180 1333.22 37.6577)" fill="#001049"/>
<rect x="1295.47" y="37.6577" width="36.6575" height="5.39187" transform="rotate(-90 1295.47 37.6577)" fill="#001049"/>
<rect x="1327.82" y="37.6577" width="26.1839" height="5.39187" transform="rotate(-90 1327.82 37.6577)" fill="#001049"/>
<rect x="1306.26" y="27.1846" width="26.1839" height="5.39187" transform="rotate(-90 1306.26 27.1846)" fill="#001049"/>
<rect x="1306.26" y="1" width="32.3512" height="5.23679" fill="#001049"/>
<rect x="1306.26" y="21.9478" width="16.1756" height="5.23679" fill="#001049"/>
<rect x="1322.43" y="11.4736" width="15.7104" height="5.39187" transform="rotate(90 1322.43 11.4736)" fill="#001049"/>
<rect x="1333.22" y="16.7104" width="16.1756" height="5.23679" transform="rotate(-180 1333.22 16.7104)" fill="#001049"/>
<rect x="1295.61" y="38.6577" width="38.6575" height="5.39187" transform="rotate(-90 1295.61 38.6577)" fill="#001049"/>
<rect x="1290.22" y="38.6577" width="37.7431" height="5.5225" transform="rotate(-180 1290.22 38.6577)" fill="#001049"/>
<rect x="1252.47" y="38.6577" width="38.6575" height="5.39187" transform="rotate(-90 1252.47 38.6577)" fill="#001049"/>
<rect x="1284.82" y="38.6577" width="27.6125" height="5.39187" transform="rotate(-90 1284.82 38.6577)" fill="#001049"/>
<rect x="1263.26" y="27.6128" width="27.6125" height="5.39187" transform="rotate(-90 1263.26 27.6128)" fill="#001049"/>
<rect x="1263.26" y="0.000488281" width="32.3512" height="5.5225" fill="#001049"/>
<rect x="1263.26" y="22.0908" width="16.1756" height="5.5225" fill="#001049"/>
<rect x="1279.43" y="11.0454" width="16.5675" height="5.39187" transform="rotate(90 1279.43 11.0454)" fill="#001049"/>
<rect x="1290.22" y="16.5679" width="16.1756" height="5.5225" transform="rotate(-180 1290.22 16.5679)" fill="#001049"/>
<rect x="1035.97" y="38.6577" width="38.6575" height="5.39187" transform="rotate(-90 1035.97 38.6577)" fill="#001049"/>
<rect x="1030.58" y="38.6577" width="37.7431" height="5.5225" transform="rotate(-180 1030.58 38.6577)" fill="#001049"/>
<rect x="992.839" y="38.6577" width="38.6575" height="5.39187" transform="rotate(-90 992.839 38.6577)" fill="#001049"/>
<rect x="1025.19" y="38.6577" width="27.6125" height="5.39187" transform="rotate(-90 1025.19 38.6577)" fill="#001049"/>
<rect x="1003.62" y="27.6128" width="27.6125" height="5.39187" transform="rotate(-90 1003.62 27.6128)" fill="#001049"/>
<rect x="1003.62" width="32.3512" height="5.5225" fill="#001049"/>
<rect x="1003.62" y="22.0903" width="16.1756" height="5.5225" fill="#001049"/>
<rect x="1019.8" y="11.0449" width="16.5675" height="5.39187" transform="rotate(90 1019.8 11.0449)" fill="#001049"/>
<rect x="1030.58" y="16.5674" width="16.1756" height="5.5225" transform="rotate(-180 1030.58 16.5674)" fill="#001049"/>
<rect x="992.838" y="38.6577" width="38.6575" height="5.39187" transform="rotate(-90 992.838 38.6577)" fill="#001049"/>
<rect x="987.447" y="38.6577" width="37.7431" height="5.5225" transform="rotate(-180 987.447 38.6577)" fill="#001049"/>
<rect x="949.703" y="38.6577" width="38.6575" height="5.39187" transform="rotate(-90 949.703 38.6577)" fill="#001049"/>
<rect x="982.055" y="38.6577" width="27.6125" height="5.39187" transform="rotate(-90 982.055 38.6577)" fill="#001049"/>
<rect x="960.487" y="27.6128" width="27.6125" height="5.39187" transform="rotate(-90 960.487 27.6128)" fill="#001049"/>
<rect x="960.487" width="32.3512" height="5.5225" fill="#001049"/>
<rect x="960.487" y="22.0903" width="16.1756" height="5.5225" fill="#001049"/>
<rect x="976.663" y="11.0449" width="16.5675" height="5.39187" transform="rotate(90 976.663 11.0449)" fill="#001049"/>
<rect x="987.447" y="16.5674" width="16.1756" height="5.5225" transform="rotate(-180 987.447 16.5674)" fill="#001049"/>
<rect x="949.705" y="38.6577" width="38.6575" height="5.39187" transform="rotate(-90 949.705 38.6577)" fill="#001049"/>
<rect x="944.313" y="38.6577" width="37.7431" height="5.5225" transform="rotate(-180 944.313 38.6577)" fill="#001049"/>
<rect x="906.57" y="38.6577" width="38.6575" height="5.39187" transform="rotate(-90 906.57 38.6577)" fill="#001049"/>
<rect x="938.921" y="38.6577" width="27.6125" height="5.39187" transform="rotate(-90 938.921 38.6577)" fill="#001049"/>
<rect x="917.354" y="27.6128" width="27.6125" height="5.39187" transform="rotate(-90 917.354 27.6128)" fill="#001049"/>
<rect x="917.354" width="32.3512" height="5.5225" fill="#001049"/>
<rect x="917.354" y="22.0903" width="16.1756" height="5.5225" fill="#001049"/>
<rect x="933.529" y="11.0449" width="16.5675" height="5.39187" transform="rotate(90 933.529 11.0449)" fill="#001049"/>
<rect x="944.313" y="16.5674" width="16.1756" height="5.5225" transform="rotate(-180 944.313 16.5674)" fill="#001049"/>
<rect x="906.57" y="38.6577" width="38.6575" height="5.39187" transform="rotate(-90 906.57 38.6577)" fill="#001049"/>
<rect x="901.178" y="38.6577" width="37.7431" height="5.5225" transform="rotate(-180 901.178 38.6577)" fill="#001049"/>
<rect x="863.435" y="38.6577" width="38.6575" height="5.39187" transform="rotate(-90 863.435 38.6577)" fill="#001049"/>
<rect x="895.786" y="38.6577" width="27.6125" height="5.39187" transform="rotate(-90 895.786 38.6577)" fill="#001049"/>
<rect x="874.219" y="27.6128" width="27.6125" height="5.39187" transform="rotate(-90 874.219 27.6128)" fill="#001049"/>
<rect x="874.219" width="32.3512" height="5.5225" fill="#001049"/>
<rect x="874.219" y="22.0903" width="16.1756" height="5.5225" fill="#001049"/>
<rect x="890.394" y="11.0449" width="16.5675" height="5.39187" transform="rotate(90 890.394 11.0449)" fill="#001049"/>
<rect x="901.178" y="16.5674" width="16.1756" height="5.5225" transform="rotate(-180 901.178 16.5674)" fill="#001049"/>
<rect x="863.435" y="38.6577" width="38.6575" height="5.39187" transform="rotate(-90 863.435 38.6577)" fill="#001049"/>
<rect x="858.043" y="38.6577" width="37.7431" height="5.5225" transform="rotate(-180 858.043 38.6577)" fill="#001049"/>
<rect x="820.3" y="38.6577" width="38.6575" height="5.39187" transform="rotate(-90 820.3 38.6577)" fill="#001049"/>
<rect x="852.651" y="38.6577" width="27.6125" height="5.39187" transform="rotate(-90 852.651 38.6577)" fill="#001049"/>
<rect x="831.084" y="27.6128" width="27.6125" height="5.39187" transform="rotate(-90 831.084 27.6128)" fill="#001049"/>
<rect x="831.084" width="32.3512" height="5.5225" fill="#001049"/>
<rect x="831.084" y="22.0903" width="16.1756" height="5.5225" fill="#001049"/>
<rect x="847.259" y="11.0449" width="16.5675" height="5.39187" transform="rotate(90 847.259 11.0449)" fill="#001049"/>
<rect x="858.043" y="16.5674" width="16.1756" height="5.5225" transform="rotate(-180 858.043 16.5674)" fill="#001049"/>
<rect x="820.3" y="38.6577" width="38.6575" height="5.39187" transform="rotate(-90 820.3 38.6577)" fill="#001049"/>
<rect x="814.908" y="38.6577" width="37.7431" height="5.5225" transform="rotate(-180 814.908 38.6577)" fill="#001049"/>
<rect x="777.165" y="38.6577" width="38.6575" height="5.39187" transform="rotate(-90 777.165 38.6577)" fill="#001049"/>
<rect x="809.516" y="38.6577" width="27.6125" height="5.39187" transform="rotate(-90 809.516 38.6577)" fill="#001049"/>
<rect x="787.949" y="27.6128" width="27.6125" height="5.39187" transform="rotate(-90 787.949 27.6128)" fill="#001049"/>
<rect x="787.949" width="32.3512" height="5.5225" fill="#001049"/>
<rect x="787.949" y="22.0903" width="16.1756" height="5.5225" fill="#001049"/>
<rect x="804.124" y="11.0449" width="16.5675" height="5.39187" transform="rotate(90 804.124 11.0449)" fill="#001049"/>
<rect x="814.908" y="16.5674" width="16.1756" height="5.5225" transform="rotate(-180 814.908 16.5674)" fill="#001049"/>
<rect x="777.162" y="38.6577" width="38.6575" height="5.39187" transform="rotate(-90 777.162 38.6577)" fill="#001049"/>
<rect x="771.77" y="38.6577" width="37.7431" height="5.5225" transform="rotate(-180 771.77 38.6577)" fill="#001049"/>
<rect x="734.027" y="38.6577" width="38.6575" height="5.39187" transform="rotate(-90 734.027 38.6577)" fill="#001049"/>
<rect x="766.378" y="38.6577" width="27.6125" height="5.39187" transform="rotate(-90 766.378 38.6577)" fill="#001049"/>
<rect x="744.811" y="27.6128" width="27.6125" height="5.39187" transform="rotate(-90 744.811 27.6128)" fill="#001049"/>
<rect x="744.811" width="32.3512" height="5.5225" fill="#001049"/>
<rect x="744.811" y="22.0903" width="16.1756" height="5.5225" fill="#001049"/>
<rect x="760.986" y="11.0449" width="16.5675" height="5.39187" transform="rotate(90 760.986 11.0449)" fill="#001049"/>
<rect x="771.77" y="16.5674" width="16.1756" height="5.5225" transform="rotate(-180 771.77 16.5674)" fill="#001049"/>
<rect x="734.03" y="38.6577" width="38.6575" height="5.39187" transform="rotate(-90 734.03 38.6577)" fill="#001049"/>
<rect x="728.638" y="38.6577" width="37.7431" height="5.5225" transform="rotate(-180 728.638 38.6577)" fill="#001049"/>
<rect x="690.895" y="38.6577" width="38.6575" height="5.39187" transform="rotate(-90 690.895 38.6577)" fill="#001049"/>
<rect x="723.246" y="38.6577" width="27.6125" height="5.39187" transform="rotate(-90 723.246 38.6577)" fill="#001049"/>
<rect x="701.679" y="27.6128" width="27.6125" height="5.39187" transform="rotate(-90 701.679 27.6128)" fill="#001049"/>
<rect x="701.679" width="32.3512" height="5.5225" fill="#001049"/>
<rect x="701.679" y="22.0903" width="16.1756" height="5.5225" fill="#001049"/>
<rect x="717.855" y="11.0449" width="16.5675" height="5.39187" transform="rotate(90 717.855 11.0449)" fill="#001049"/>
<rect x="728.638" y="16.5674" width="16.1756" height="5.5225" transform="rotate(-180 728.638 16.5674)" fill="#001049"/>
<rect x="690.896" y="38.6577" width="38.6575" height="5.39187" transform="rotate(-90 690.896 38.6577)" fill="#001049"/>
<rect x="685.504" y="38.6577" width="37.7431" height="5.5225" transform="rotate(-180 685.504 38.6577)" fill="#001049"/>
<rect x="647.76" y="38.6577" width="38.6575" height="5.39187" transform="rotate(-90 647.76 38.6577)" fill="#001049"/>
<rect x="680.112" y="38.6577" width="27.6125" height="5.39187" transform="rotate(-90 680.112 38.6577)" fill="#001049"/>
<rect x="658.544" y="27.6128" width="27.6125" height="5.39187" transform="rotate(-90 658.544 27.6128)" fill="#001049"/>
<rect x="658.544" width="32.3512" height="5.5225" fill="#001049"/>
<rect x="658.544" y="22.0903" width="16.1756" height="5.5225" fill="#001049"/>
<rect x="674.72" y="11.0449" width="16.5675" height="5.39187" transform="rotate(90 674.72 11.0449)" fill="#001049"/>
<rect x="685.504" y="16.5674" width="16.1756" height="5.5225" transform="rotate(-180 685.504 16.5674)" fill="#001049"/>
<rect x="647.758" y="38.6577" width="38.6575" height="5.39187" transform="rotate(-90 647.758 38.6577)" fill="#001049"/>
<rect x="642.366" y="38.6577" width="37.7431" height="5.5225" transform="rotate(-180 642.366 38.6577)" fill="#001049"/>
<rect x="604.624" y="38.6577" width="38.6575" height="5.39187" transform="rotate(-90 604.624 38.6577)" fill="#001049"/>
<rect x="636.974" y="38.6577" width="27.6125" height="5.39187" transform="rotate(-90 636.974 38.6577)" fill="#001049"/>
<rect x="615.407" y="27.6128" width="27.6125" height="5.39187" transform="rotate(-90 615.407 27.6128)" fill="#001049"/>
<rect x="615.407" width="32.3512" height="5.5225" fill="#001049"/>
<rect x="615.407" y="22.0903" width="16.1756" height="5.5225" fill="#001049"/>
<rect x="631.583" y="11.0449" width="16.5675" height="5.39187" transform="rotate(90 631.583 11.0449)" fill="#001049"/>
<rect x="642.366" y="16.5674" width="16.1756" height="5.5225" transform="rotate(-180 642.366 16.5674)" fill="#001049"/>
<rect x="604.624" y="38.6577" width="38.6575" height="5.39187" transform="rotate(-90 604.624 38.6577)" fill="#001049"/>
<rect x="599.232" y="38.6577" width="37.7431" height="5.5225" transform="rotate(-180 599.232 38.6577)" fill="#001049"/>
<rect x="561.489" y="38.6577" width="38.6575" height="5.39187" transform="rotate(-90 561.489 38.6577)" fill="#001049"/>
<rect x="593.84" y="38.6577" width="27.6125" height="5.39187" transform="rotate(-90 593.84 38.6577)" fill="#001049"/>
<rect x="572.273" y="27.6128" width="27.6125" height="5.39187" transform="rotate(-90 572.273 27.6128)" fill="#001049"/>
<rect x="572.273" width="32.3512" height="5.5225" fill="#001049"/>
<rect x="572.273" y="22.0903" width="16.1756" height="5.5225" fill="#001049"/>
<rect x="588.448" y="11.0449" width="16.5675" height="5.39187" transform="rotate(90 588.448 11.0449)" fill="#001049"/>
<rect x="599.232" y="16.5674" width="16.1756" height="5.5225" transform="rotate(-180 599.232 16.5674)" fill="#001049"/>
<rect x="561.488" y="38.6577" width="38.6575" height="5.39187" transform="rotate(-90 561.488 38.6577)" fill="#001049"/>
<rect x="556.096" y="38.6577" width="37.7431" height="5.5225" transform="rotate(-180 556.096 38.6577)" fill="#001049"/>
<rect x="518.353" y="38.6577" width="38.6575" height="5.39187" transform="rotate(-90 518.353 38.6577)" fill="#001049"/>
<rect x="550.704" y="38.6577" width="27.6125" height="5.39187" transform="rotate(-90 550.704 38.6577)" fill="#001049"/>
<rect x="529.137" y="27.6128" width="27.6125" height="5.39187" transform="rotate(-90 529.137 27.6128)" fill="#001049"/>
<rect x="529.137" width="32.3512" height="5.5225" fill="#001049"/>
<rect x="529.137" y="22.0903" width="16.1756" height="5.5225" fill="#001049"/>
<rect x="545.312" y="11.0449" width="16.5675" height="5.39187" transform="rotate(90 545.312 11.0449)" fill="#001049"/>
<rect x="556.096" y="16.5674" width="16.1756" height="5.5225" transform="rotate(-180 556.096 16.5674)" fill="#001049"/>
<rect x="518.356" y="38.6577" width="38.6575" height="5.39187" transform="rotate(-90 518.356 38.6577)" fill="#001049"/>
<rect x="512.964" y="38.6577" width="37.7431" height="5.5225" transform="rotate(-180 512.964 38.6577)" fill="#001049"/>
<rect x="475.221" y="38.6577" width="38.6575" height="5.39187" transform="rotate(-90 475.221 38.6577)" fill="#001049"/>
<rect x="507.572" y="38.6577" width="27.6125" height="5.39187" transform="rotate(-90 507.572 38.6577)" fill="#001049"/>
<rect x="486.005" y="27.6128" width="27.6125" height="5.39187" transform="rotate(-90 486.005 27.6128)" fill="#001049"/>
<rect x="486.005" width="32.3512" height="5.5225" fill="#001049"/>
<rect x="486.005" y="22.0903" width="16.1756" height="5.5225" fill="#001049"/>
<rect x="502.18" y="11.0449" width="16.5675" height="5.39187" transform="rotate(90 502.18 11.0449)" fill="#001049"/>
<rect x="512.964" y="16.5674" width="16.1756" height="5.5225" transform="rotate(-180 512.964 16.5674)" fill="#001049"/>
<rect x="475.219" y="38.6577" width="38.6575" height="5.39187" transform="rotate(-90 475.219 38.6577)" fill="#001049"/>
<rect x="469.827" y="38.6577" width="37.7431" height="5.5225" transform="rotate(-180 469.827 38.6577)" fill="#001049"/>
<rect x="432.084" y="38.6577" width="38.6575" height="5.39187" transform="rotate(-90 432.084 38.6577)" fill="#001049"/>
<rect x="464.435" y="38.6577" width="27.6125" height="5.39187" transform="rotate(-90 464.435 38.6577)" fill="#001049"/>
<rect x="442.868" y="27.6128" width="27.6125" height="5.39187" transform="rotate(-90 442.868 27.6128)" fill="#001049"/>
<rect x="442.868" width="32.3512" height="5.5225" fill="#001049"/>
<rect x="442.868" y="22.0903" width="16.1756" height="5.5225" fill="#001049"/>
<rect x="459.043" y="11.0449" width="16.5675" height="5.39187" transform="rotate(90 459.043 11.0449)" fill="#001049"/>
<rect x="469.827" y="16.5674" width="16.1756" height="5.5225" transform="rotate(-180 469.827 16.5674)" fill="#001049"/>
<rect x="432.085" y="38.6577" width="38.6575" height="5.39187" transform="rotate(-90 432.085 38.6577)" fill="#001049"/>
<rect x="426.693" y="38.6577" width="37.7431" height="5.5225" transform="rotate(-180 426.693 38.6577)" fill="#001049"/>
<rect x="388.95" y="38.6577" width="38.6575" height="5.39187" transform="rotate(-90 388.95 38.6577)" fill="#001049"/>
<rect x="421.302" y="38.6577" width="27.6125" height="5.39187" transform="rotate(-90 421.302 38.6577)" fill="#001049"/>
<rect x="399.734" y="27.6128" width="27.6125" height="5.39187" transform="rotate(-90 399.734 27.6128)" fill="#001049"/>
<rect x="399.734" width="32.3512" height="5.5225" fill="#001049"/>
<rect x="399.734" y="22.0903" width="16.1756" height="5.5225" fill="#001049"/>
<rect x="415.91" y="11.0449" width="16.5675" height="5.39187" transform="rotate(90 415.91 11.0449)" fill="#001049"/>
<rect x="426.693" y="16.5674" width="16.1756" height="5.5225" transform="rotate(-180 426.693 16.5674)" fill="#001049"/>
<rect x="388.95" y="38.6577" width="38.6575" height="5.39187" transform="rotate(-90 388.95 38.6577)" fill="#001049"/>
<rect x="383.559" y="38.6577" width="37.7431" height="5.5225" transform="rotate(-180 383.559 38.6577)" fill="#001049"/>
<rect x="345.815" y="38.6577" width="38.6575" height="5.39187" transform="rotate(-90 345.815 38.6577)" fill="#001049"/>
<rect x="378.167" y="38.6577" width="27.6125" height="5.39187" transform="rotate(-90 378.167 38.6577)" fill="#001049"/>
<rect x="356.599" y="27.6128" width="27.6125" height="5.39187" transform="rotate(-90 356.599 27.6128)" fill="#001049"/>
<rect x="356.599" width="32.3512" height="5.5225" fill="#001049"/>
<rect x="356.599" y="22.0903" width="16.1756" height="5.5225" fill="#001049"/>
<rect x="372.775" y="11.0449" width="16.5675" height="5.39187" transform="rotate(90 372.775 11.0449)" fill="#001049"/>
<rect x="383.559" y="16.5674" width="16.1756" height="5.5225" transform="rotate(-180 383.559 16.5674)" fill="#001049"/>
<rect x="345.815" y="38.6577" width="38.6575" height="5.39187" transform="rotate(-90 345.815 38.6577)" fill="#001049"/>
<rect x="340.424" y="38.6577" width="37.7431" height="5.5225" transform="rotate(-180 340.424 38.6577)" fill="#001049"/>
<rect x="302.681" y="38.6577" width="38.6575" height="5.39187" transform="rotate(-90 302.681 38.6577)" fill="#001049"/>
<rect x="335.031" y="38.6577" width="27.6125" height="5.39187" transform="rotate(-90 335.031 38.6577)" fill="#001049"/>
<rect x="313.464" y="27.6128" width="27.6125" height="5.39187" transform="rotate(-90 313.464 27.6128)" fill="#001049"/>
<rect x="313.464" width="32.3512" height="5.5225" fill="#001049"/>
<rect x="313.464" y="22.0903" width="16.1756" height="5.5225" fill="#001049"/>
<rect x="329.64" y="11.0449" width="16.5675" height="5.39187" transform="rotate(90 329.64 11.0449)" fill="#001049"/>
<rect x="340.424" y="16.5674" width="16.1756" height="5.5225" transform="rotate(-180 340.424 16.5674)" fill="#001049"/>
<rect x="302.68" y="38.6577" width="38.6575" height="5.39187" transform="rotate(-90 302.68 38.6577)" fill="#001049"/>
<rect x="297.289" y="38.6577" width="37.7431" height="5.5225" transform="rotate(-180 297.289 38.6577)" fill="#001049"/>
<rect x="259.545" y="38.6577" width="38.6575" height="5.39187" transform="rotate(-90 259.545 38.6577)" fill="#001049"/>
<rect x="291.897" y="38.6577" width="27.6125" height="5.39187" transform="rotate(-90 291.897 38.6577)" fill="#001049"/>
<rect x="270.329" y="27.6128" width="27.6125" height="5.39187" transform="rotate(-90 270.329 27.6128)" fill="#001049"/>
<rect x="270.329" width="32.3512" height="5.5225" fill="#001049"/>
<rect x="270.329" y="22.0903" width="16.1756" height="5.5225" fill="#001049"/>
<rect x="286.505" y="11.0449" width="16.5675" height="5.39187" transform="rotate(90 286.505 11.0449)" fill="#001049"/>
<rect x="297.289" y="16.5674" width="16.1756" height="5.5225" transform="rotate(-180 297.289 16.5674)" fill="#001049"/>
<rect x="259.545" y="38.6577" width="38.6575" height="5.39187" transform="rotate(-90 259.545 38.6577)" fill="#001049"/>
<rect x="254.154" y="38.6577" width="37.7431" height="5.5225" transform="rotate(-180 254.154 38.6577)" fill="#001049"/>
<rect x="216.411" y="38.6577" width="38.6575" height="5.39187" transform="rotate(-90 216.411 38.6577)" fill="#001049"/>
<rect x="248.762" y="38.6577" width="27.6125" height="5.39187" transform="rotate(-90 248.762 38.6577)" fill="#001049"/>
<rect x="227.194" y="27.6128" width="27.6125" height="5.39187" transform="rotate(-90 227.194 27.6128)" fill="#001049"/>
<rect x="227.194" width="32.3512" height="5.5225" fill="#001049"/>
<rect x="227.194" y="22.0903" width="16.1756" height="5.5225" fill="#001049"/>
<rect x="243.37" y="11.0449" width="16.5675" height="5.39187" transform="rotate(90 243.37 11.0449)" fill="#001049"/>
<rect x="254.154" y="16.5674" width="16.1756" height="5.5225" transform="rotate(-180 254.154 16.5674)" fill="#001049"/>
<rect x="216.41" y="38.6577" width="38.6575" height="5.39187" transform="rotate(-90 216.41 38.6577)" fill="#001049"/>
<rect x="211.019" y="38.6577" width="37.7431" height="5.5225" transform="rotate(-180 211.019 38.6577)" fill="#001049"/>
<rect x="173.276" y="38.6577" width="38.6575" height="5.39187" transform="rotate(-90 173.276 38.6577)" fill="#001049"/>
<rect x="205.627" y="38.6577" width="27.6125" height="5.39187" transform="rotate(-90 205.627 38.6577)" fill="#001049"/>
<rect x="184.059" y="27.6128" width="27.6125" height="5.39187" transform="rotate(-90 184.059 27.6128)" fill="#001049"/>
<rect x="184.059" width="32.3512" height="5.5225" fill="#001049"/>
<rect x="184.059" y="22.0903" width="16.1756" height="5.5225" fill="#001049"/>
<rect x="200.235" y="11.0449" width="16.5675" height="5.39187" transform="rotate(90 200.235 11.0449)" fill="#001049"/>
<rect x="211.019" y="16.5674" width="16.1756" height="5.5225" transform="rotate(-180 211.019 16.5674)" fill="#001049"/>
<rect x="173.276" y="38.6577" width="38.6575" height="5.39187" transform="rotate(-90 173.276 38.6577)" fill="#001049"/>
<rect x="167.884" y="38.6577" width="37.7431" height="5.5225" transform="rotate(-180 167.884 38.6577)" fill="#001049"/>
<rect x="130.141" y="38.6577" width="38.6575" height="5.39187" transform="rotate(-90 130.141 38.6577)" fill="#001049"/>
<rect x="162.492" y="38.6577" width="27.6125" height="5.39187" transform="rotate(-90 162.492 38.6577)" fill="#001049"/>
<rect x="140.924" y="27.6128" width="27.6125" height="5.39187" transform="rotate(-90 140.924 27.6128)" fill="#001049"/>
<rect x="140.924" width="32.3512" height="5.5225" fill="#001049"/>
<rect x="140.924" y="22.0903" width="16.1756" height="5.5225" fill="#001049"/>
<rect x="157.1" y="11.0449" width="16.5675" height="5.39187" transform="rotate(90 157.1 11.0449)" fill="#001049"/>
<rect x="167.884" y="16.5674" width="16.1756" height="5.5225" transform="rotate(-180 167.884 16.5674)" fill="#001049"/>
<rect x="130.141" y="38.6577" width="38.6575" height="5.39187" transform="rotate(-90 130.141 38.6577)" fill="#001049"/>
<rect x="124.749" y="38.6577" width="37.7431" height="5.5225" transform="rotate(-180 124.749 38.6577)" fill="#001049"/>
<rect x="87.0059" y="38.6577" width="38.6575" height="5.39187" transform="rotate(-90 87.0059 38.6577)" fill="#001049"/>
<rect x="119.357" y="38.6577" width="27.6125" height="5.39187" transform="rotate(-90 119.357 38.6577)" fill="#001049"/>
<rect x="97.7896" y="27.6128" width="27.6125" height="5.39187" transform="rotate(-90 97.7896 27.6128)" fill="#001049"/>
<rect x="97.7896" width="32.3512" height="5.5225" fill="#001049"/>
<rect x="97.7896" y="22.0903" width="16.1756" height="5.5225" fill="#001049"/>
<rect x="113.965" y="11.0449" width="16.5675" height="5.39187" transform="rotate(90 113.965 11.0449)" fill="#001049"/>
<rect x="124.749" y="16.5674" width="16.1756" height="5.5225" transform="rotate(-180 124.749 16.5674)" fill="#001049"/>
<rect x="87.0056" y="38.6577" width="38.6575" height="5.39187" transform="rotate(-90 87.0056 38.6577)" fill="#001049"/>
<rect x="81.6138" y="38.6577" width="37.7431" height="5.5225" transform="rotate(-180 81.6138 38.6577)" fill="#001049"/>
<rect x="43.8706" y="38.6577" width="38.6575" height="5.39187" transform="rotate(-90 43.8706 38.6577)" fill="#001049"/>
<rect x="76.2219" y="38.6577" width="27.6125" height="5.39187" transform="rotate(-90 76.2219 38.6577)" fill="#001049"/>
<rect x="54.6545" y="27.6128" width="27.6125" height="5.39187" transform="rotate(-90 54.6545 27.6128)" fill="#001049"/>
<rect x="54.6545" width="32.3512" height="5.5225" fill="#001049"/>
<rect x="54.6545" y="22.0903" width="16.1756" height="5.5225" fill="#001049"/>
<rect x="70.8301" y="11.0449" width="16.5675" height="5.39187" transform="rotate(90 70.8301 11.0449)" fill="#001049"/>
<rect x="81.6138" y="16.5674" width="16.1756" height="5.5225" transform="rotate(-180 81.6138 16.5674)" fill="#001049"/>
<rect x="43.5557" y="38.6577" width="38.6575" height="5.44443" transform="rotate(-90 43.5557 38.6577)" fill="#001049"/>
<rect x="38.1113" y="38.6577" width="38.111" height="5.5225" transform="rotate(-180 38.1113 38.6577)" fill="#001049"/>
<rect y="38.6577" width="38.6575" height="5.44443" transform="rotate(-90 0 38.6577)" fill="#001049"/>
<rect x="32.6667" y="38.6577" width="27.6125" height="5.44443" transform="rotate(-90 32.6667 38.6577)" fill="#001049"/>
<rect x="10.8889" y="27.6123" width="27.6125" height="5.44443" transform="rotate(-90 10.8889 27.6123)" fill="#001049"/>
<rect x="10.8889" width="32.6666" height="5.5225" fill="#001049"/>
<rect x="10.8889" y="22.0903" width="16.3333" height="5.5225" fill="#001049"/>
<rect x="27.2224" y="11.0449" width="16.5675" height="5.44443" transform="rotate(90 27.2224 11.0449)" fill="#001049"/>
<rect x="38.1113" y="16.5674" width="16.3333" height="5.5225" transform="rotate(-180 38.1113 16.5674)" fill="#001049"/>
<rect y="33" width="1473" height="861" fill="#001049"/>
</svg>
